<svg width="16" height="16" viewBox="0 0 16 16" fill="none" xmlns="http://www.w3.org/2000/svg">
<path d="M12.9 8.32C13.457 8.32 13.9911 8.52228 14.3849 8.88235C14.7788 9.24242 15 9.73078 15 10.24V10.88C15 13.4029 12.396 16 8 16C3.604 16 1 13.4029 1 10.88V10.24C1 9.73078 1.22125 9.24242 1.61508 8.88235C2.0089 8.52228 2.54305 8.32 3.1 8.32H12.9ZM8 0C9.02108 0 10.0003 0.370856 10.7224 1.03098C11.4444 1.69111 11.85 2.58644 11.85 3.52C11.85 4.45356 11.4444 5.34889 10.7224 6.00902C10.0003 6.66914 9.02108 7.04 8 7.04C6.97892 7.04 5.99965 6.66914 5.27764 6.00902C4.55562 5.34889 4.15 4.45356 4.15 3.52C4.15 2.58644 4.55562 1.69111 5.27764 1.03098C5.99965 0.370856 6.97892 0 8 0Z" fill="#3D6DD4"/>
</svg>
