<svg width="41" height="52" viewBox="0 0 41 52" fill="none" xmlns="http://www.w3.org/2000/svg">
<path opacity="0.39" d="M31.969 8.94966C31.8171 8.29964 31.4145 7.58524 31.0447 7.08649C30.9283 6.92811 30.8286 7.08657 30.7422 6.98295C30.5727 6.7798 30.5334 6.53324 30.3485 6.34389C30.2865 6.28165 30.1141 6.4928 30.0544 6.4255C29.7304 6.06005 29.56 5.63797 29.2527 5.25094C28.4634 4.27458 27.6534 3.30759 26.4735 2.43977C25.3888 1.66497 24.2201 1.1961 23.0751 0.885981C22.2863 0.670357 21.3139 0.687875 20.5553 0.463434C20.4663 0.436774 20.556 0.227452 20.5416 0.206622C20.3098 -0.112878 20.3308 0.342571 20.1464 0.374898C19.4108 0.502943 18.6453 0.447179 17.9877 0.315212C17.7085 0.258861 18.0214 -0.160192 17.719 0.0669566C17.6982 0.0823213 17.7551 0.321194 17.6759 0.341272C17.4972 0.386093 17.1678 0.326524 17.0321 0.339139C16.771 0.36439 16.726 0.360332 16.4816 0.354339C16.1442 0.348376 15.7444 0.455888 15.3876 0.398196C15.3111 0.385186 15.4159 0.145739 15.2935 0.103336C15.1713 0.0608281 14.8473 0.0791723 14.7377 0.13588C14.629 0.192442 14.675 0.381723 14.6558 0.425052C14.4987 0.790581 14.1256 0.285438 14.0773 0.273457C13.6252 0.166674 13.21 0.196912 12.801 0.254366C12.3811 0.309358 11.9757 0.404093 11.5503 0.451734C10.8858 0.524448 10.1577 0.566598 9.53891 0.744218C8.80231 0.957479 8.23905 1.29237 7.55698 1.55901C7.48524 1.5877 7.45666 1.29167 7.36754 1.32697C6.41503 1.70709 5.52901 2.24112 4.80984 2.99251C4.73873 3.06781 4.98957 3.19301 4.92897 3.27923C4.85205 3.38702 4.77094 3.51529 4.68791 3.64367C4.33856 4.15749 4.00044 4.69377 3.15126 4.3609C2.88388 4.72312 2.59231 5.18771 2.56629 5.62947C2.55113 5.91247 2.90606 5.85715 2.65261 6.04583C2.5961 6.08925 2.43877 5.89135 2.36849 5.96783C2.07097 6.29396 1.92571 6.74462 1.6426 7.07664C1.58449 7.14397 1.3999 7.03673 1.35492 7.04374C0.9841 7.11355 1.32806 7.63052 1.3383 7.70932C1.39822 8.32648 1.17555 8.66189 1.04069 9.14991C1.01029 9.26246 0.773808 9.05119 0.734594 9.15776C0.534491 9.71531 0.420447 10.3137 0.43282 10.8902C0.436244 11.019 0.697292 10.9539 0.711226 11.0176C0.771431 11.2928 0.30934 11.2663 0.361744 11.5302C0.372316 11.5858 0.582359 11.5935 0.603128 11.6071C0.929616 11.8172 0.407111 11.8569 0.389485 11.8933C0.155955 12.352 0.633647 12.7384 0.4933 13.1865C0.476044 13.2402 0.233081 13.0786 0.200499 13.2325C0.128691 13.5706 0.0751546 13.9139 0.0385848 14.2638C-0.0427712 15.026 0.00528593 15.8106 0.176109 16.5325C0.215631 16.6992 0.408041 16.5702 0.432838 16.58C0.820757 16.7295 0.318723 16.8658 0.303349 16.9235C0.195497 17.3706 0.669019 17.7085 0.112257 18.0885C0.591283 19.8709 0.928367 21.756 2.25649 23.0778C2.27265 23.0946 2.47516 22.9404 2.50625 22.974C2.88564 23.3729 2.49389 23.4684 2.26578 24.0255C2.21002 24.1678 2.84739 24.1051 2.89533 24.1014C3.0739 24.0937 3.34389 23.8196 3.38488 23.8284C3.71054 23.902 2.6434 24.5303 2.82714 24.8133C2.83455 24.8208 3.001 24.6596 3.03518 24.6704C3.14172 24.7033 3.11364 24.8245 3.22574 24.8508C3.48497 24.9104 4.01451 24.6215 3.89383 25.0572C3.87837 25.1133 3.27171 25.4729 3.47325 25.6952C3.55291 25.7839 3.85762 26.2101 3.98436 26.2967C4.10989 26.384 4.22642 26.1657 4.24063 26.1681C4.71545 26.2884 4.72169 26.0954 5.18516 25.9661C5.64547 25.8338 4.79772 26.4576 4.7572 26.5934C4.71708 26.7295 5.08853 26.7893 5.19836 26.7856C5.30834 26.7825 5.36224 26.6242 5.43866 26.6391C5.94082 26.7374 5.15889 27.1144 5.12143 27.3262C5.10792 27.4039 5.11486 27.4619 5.137 27.5049C5.26181 27.7436 5.83102 27.5242 6.04341 27.6536C6.11249 27.696 5.93969 27.7724 5.97661 27.8348C6.12555 28.0807 6.41289 28.0253 6.48253 28.4069C6.49075 28.4662 6.35344 28.9869 6.70923 28.8503C6.76034 28.8305 6.84653 28.6443 6.96168 28.6937C7.13552 28.7691 7.39448 28.9524 7.48769 29.1257C7.55788 29.2551 7.22348 29.3833 7.42118 29.429C7.50924 29.4491 7.52796 29.2129 7.68205 29.2613C7.83323 29.3075 8.10432 29.561 8.20587 29.6588C8.30769 29.7574 8.08912 29.8885 8.08683 29.9083C8.07644 30.0243 8.20315 30.2905 8.22232 30.3066C9.12086 31.1256 10.2385 31.511 11.0706 32.3423C11.1365 32.4076 10.9296 32.5705 10.938 32.5825C11.1194 32.8622 11.3457 32.1735 11.6583 32.1293C11.3124 32.5185 11.4723 32.5247 11.6121 32.706C11.6787 32.7933 11.5095 32.9165 11.5045 32.9387C11.4416 33.2772 11.7717 33.0334 11.8435 32.9868C12.1089 32.8166 11.9833 33.163 12.1612 33.0494C12.3378 32.9365 12.3865 32.6053 12.5518 32.7371C12.4857 32.9209 12.0643 33.2104 12.1446 33.3714C12.4472 33.981 13.5875 34.3583 14.0046 34.6145C14.4216 34.872 14.5284 34.9916 14.7982 35.1043C15.2849 35.3061 14.9219 35.4888 15.0849 35.8092C15.2496 36.1302 15.6389 35.3172 15.7872 35.1887C15.9346 35.0596 15.8606 35.248 15.9668 35.1949C16.0729 35.1417 16.0503 34.9664 16.1794 35.01C16.2632 35.0383 16.3326 35.2521 16.3505 35.4507C16.3592 35.5524 16.3596 35.6554 16.3365 35.7234C16.1964 36.1342 15.8242 36.425 16.202 36.4768C16.2238 36.4796 16.2923 36.2472 16.3697 36.2677C16.9779 36.4351 17.5211 36.7599 18.1196 36.9443C18.2023 36.9695 18.2757 36.7095 18.3254 36.7216C18.8426 36.8471 18.4581 37.1237 18.4364 37.6825C18.7249 37.0998 19.0623 36.8431 19.3918 37.0427C19.5892 37.1619 19.4066 37.3813 19.4282 37.629C19.4346 37.7036 19.6747 37.6238 19.6297 37.7523C19.4836 38.1729 19.0969 38.5057 19.5367 38.5499C19.5563 38.5512 19.6343 38.3197 19.693 38.3391C20.0734 38.4633 19.8706 38.8723 20.2 39.1402C20.4587 39.3506 21.0981 39.4192 21.4419 39.5779C21.8171 38.9544 22.0287 39.2803 21.8875 39.7825C22.1065 39.8931 22.315 40.0547 22.5499 40.1176C22.6306 40.1395 22.696 39.9324 22.7165 39.9183C23.0346 39.6947 22.8712 40.1671 22.9056 40.2108C23.292 40.6665 23.8813 40.5942 24.1507 41.1837C24.1601 41.2048 23.9219 41.6516 24.2394 41.4135C24.2607 41.3967 24.2277 41.1066 24.4554 41.2254C24.6834 41.3445 25.231 41.3625 25.4122 41.7484C25.456 41.8414 25.4243 42.3033 25.7398 42.1207C25.7825 42.0958 25.8365 41.9589 25.9074 41.9078C26.1346 41.7456 25.918 42.2121 26.2533 41.9086C26.5899 41.6059 26.9792 41.4634 27.1307 41.9077C27.1358 41.921 26.9963 42.3105 27.0951 42.3636C27.2529 42.448 27.512 42.5081 27.6717 42.6092C27.7475 42.6574 27.5669 42.8416 27.5778 42.8537C28.0148 43.2874 28.4965 43.3203 29.099 43.577C29.2097 43.6236 29.3159 44.0917 29.6553 43.9826C30.0252 43.8621 30.4532 42.6756 30.7899 43.2292C30.9305 43.4543 30.3494 44.9362 31.1375 44.4701C31.7217 45.069 32.5752 45.1114 33.1146 45.7898C33.1375 45.8192 33.0048 46.2521 33.0809 46.2931C33.1947 46.3534 33.3628 46.2179 33.4465 46.2549C33.8028 46.4073 34.0009 46.7402 34.3293 46.918C34.4519 46.9847 34.5251 46.7807 34.67 46.8596C34.8184 46.9411 34.763 47.2361 35.0231 47.2444C35.2197 47.2495 35.6785 46.8695 35.9021 46.9363C35.6007 47.4093 35.7425 47.4878 35.8904 47.7625C35.9185 47.8155 35.7641 47.9474 35.7718 47.9808C35.7996 48.1197 35.9692 48.0379 35.9902 48.1833C35.9955 48.2183 35.8904 48.3784 35.8886 48.416C35.868 48.7408 36.3294 48.5315 36.4112 48.4963C36.7192 48.3603 36.6423 48.6091 36.8221 48.5959C36.9991 48.5808 36.908 48.3489 37.0793 48.3834C37.1677 48.4013 37.254 48.4309 37.3373 48.4677C37.5959 48.5896 37.8297 48.7788 38.0386 48.9236C38.1478 49.0007 37.9231 49.153 37.9352 49.1688C38.1208 49.3853 38.5056 49.331 38.3304 49.8331C39.2595 48.8799 38.3886 50.036 38.8714 50.0519C38.9103 50.0527 39.293 49.5605 39.251 49.4202C39.2093 49.2801 38.9524 49.336 38.9031 49.1239C38.8919 49.0746 39.0559 48.4718 39.0531 48.4258C39.0239 48.0617 38.4448 48.7908 38.4042 48.8244C37.9616 49.1834 38.1099 48.5132 38.0762 48.4351C37.9808 48.2125 37.8248 48.1048 37.6848 47.988C37.6825 47.9865 37.6761 47.9816 37.6738 47.9802C37.5901 47.9124 37.5108 47.8402 37.4524 47.7353C37.3487 47.5536 37.6791 47.0414 37.548 46.9753C37.1079 46.7533 36.4999 47.3706 36.5321 46.5093C36.5379 46.3251 36.9805 45.8184 36.404 46.0675C36.368 46.0833 35.8922 46.3453 35.9293 46.0083C35.9341 45.9659 36.0405 45.8035 36.0289 45.7766C35.9495 45.5996 35.7733 45.67 35.6603 45.5093C35.547 45.3484 35.4296 45.1421 35.218 45.0852C35.0895 45.05 34.7666 45.2732 34.6686 45.3159C34.3927 45.4429 34.4603 44.9906 34.211 45.1984C33.9583 45.406 33.8762 45.9118 33.5412 45.9374C33.802 45.5056 34.0588 45.0555 34.3158 44.6179C33.7974 44.3118 33.2179 44.1414 32.719 43.8042C32.6583 43.7626 32.8656 43.5722 32.8041 43.5216C32.5428 43.3081 32.1906 43.3169 31.9364 43.0687C31.7356 42.8729 31.642 42.4774 31.4378 42.2662C30.9844 42.6644 30.7399 42.2833 30.4495 42.1663C30.35 42.1264 30.2756 42.2615 30.1854 42.265C29.8468 42.2749 30.227 41.9102 30.2028 41.801C30.0966 41.3333 29.466 42.3007 29.1469 42.0711C29.13 42.0593 29.2339 41.4009 29.2235 41.3495C29.1622 41.0186 29.0786 41.5119 28.9364 41.4779C28.6772 41.4161 28.4494 41.4487 28.2859 41.1368C28.2396 41.0458 28.2636 40.6105 27.9635 40.7744C27.9241 40.7958 27.8283 40.9756 27.8067 40.9764C27.4252 40.9752 27.7503 40.4249 27.707 40.1444C27.6631 39.8636 27.1871 40.0892 27.0704 40.1668C26.7673 40.3667 27.0973 40.3482 27.0873 40.3799C26.9695 40.7583 26.8255 40.5924 26.6708 40.5356C26.3235 41.0577 26.1541 40.9097 26.5143 40.4761C26.554 40.429 26.6285 40.5432 26.6708 40.5356C26.8736 39.9387 26.707 39.7442 26.1741 40.0913C25.9253 40.2546 25.8607 40.5833 25.5943 40.2851C25.4729 40.1499 25.756 39.8173 25.686 39.6364C25.5235 39.2218 24.9258 39.3272 24.6469 39.0816C24.5457 38.9924 24.7796 38.8589 24.7147 38.791C24.5439 38.6109 24.2736 38.6529 24.1153 38.4491C24.1012 38.4304 24.2761 38.2477 24.2138 38.2057C23.7461 37.8846 23.24 37.7593 22.7374 37.455C22.4919 37.3062 22.1298 36.9229 21.8633 36.7907C21.4 36.5591 20.676 36.5344 20.3498 36.2299C20.1369 36.0324 20.32 35.8549 20.3046 35.6472C20.2747 35.2446 19.6117 35.5219 19.5165 35.5695C19.5136 35.5712 19.6909 35.7497 19.513 35.7888C19.3091 35.9736 19.5183 35.5719 19.5165 35.5695C19.4547 35.6 19.0073 35.3885 18.9485 35.2963C18.9168 35.2463 19.0657 35.063 19.0469 35.0406C18.6024 34.5178 18.0752 34.1195 17.4511 33.8592C17.4386 33.857 17.3149 34.0887 17.2872 34.0807C17.2603 34.0734 17.2351 34.0646 17.2114 34.0546L17.2972 34.1117C16.989 33.961 16.9688 33.5902 16.8354 33.2764C16.6921 32.9395 16.4552 32.8466 16.0403 33.1012C15.882 32.9163 15.4909 32.8764 15.2617 32.8575C15.033 32.8388 15.3137 32.4117 15.306 32.3936C15.0692 31.8165 14.6469 31.8651 14.1777 31.5665C13.9531 31.4245 13.5842 31.0485 13.3931 30.8293C13.2431 30.6559 13.0628 30.6668 12.9467 30.4786C12.931 30.4533 13.0935 30.2921 13.0922 30.28C13.0796 29.9244 12.823 30.429 12.7243 30.4775C12.3643 30.6528 12.1605 30.7368 12.0335 30.4184C12.0032 30.3446 12.3491 29.5973 12.2826 29.4835C12.1944 29.3361 12.0613 29.5971 11.9744 29.4373C11.9669 29.4238 12.0804 29.2884 11.9957 29.2295C11.6008 28.9518 11.1318 28.6965 10.7645 28.3609C10.7141 28.3158 10.9616 28.1582 10.8923 28.0898C10.565 27.7673 10.1836 27.4483 9.76886 27.2517C9.66609 27.2038 9.58513 27.3951 9.52859 27.4227C9.18515 27.5881 9.37596 27.0681 9.35923 27.0393C8.94216 26.3194 8.17733 26.2265 7.822 25.5176C7.81202 25.4948 7.88137 25.2462 7.83782 25.1267C7.80488 25.0477 7.72737 25.01 7.55846 25.0835C7.52879 25.0972 7.06597 25.299 7.23331 24.9862C7.24406 24.9669 7.49165 24.8756 7.37082 24.7714C7.24937 24.6663 7.2187 24.3683 6.87155 24.3694C6.76267 24.3705 6.28023 24.536 6.45917 24.1385C6.46954 24.1087 6.97901 23.3443 6.43328 23.61C6.34367 23.6538 5.84158 24.0413 5.96208 23.6522C5.98645 23.5779 6.14991 23.5644 6.15166 23.4144C6.15626 23.1857 5.87687 23.0779 5.98946 22.7352C6.00899 22.6741 6.28186 22.3059 5.93727 22.3701C5.88306 22.3798 5.72516 22.5257 5.6678 22.4787C5.39309 22.2534 5.33942 21.8821 5.05121 21.6574C4.9493 21.5767 4.6775 21.7928 4.53663 21.7227C4.39572 21.6529 4.19881 21.4594 4.28127 21.2707C4.3645 21.0837 4.91593 20.9752 4.87384 20.785C4.69825 19.9672 4.12862 19.3408 3.88476 18.5665C3.84953 18.4531 4.06141 18.5014 4.02538 18.3335C3.88133 17.7038 3.94339 16.6507 3.53595 16.1112C3.20357 15.6645 2.95078 16.2362 2.81698 15.881C2.7542 15.7014 3.39463 15.541 3.41645 15.5047C3.59421 15.2029 3.46692 14.9619 3.4796 14.6948C3.48428 14.6181 3.49687 14.541 3.52393 14.4625C3.55257 14.3799 3.79628 14.4958 3.81782 14.4255C3.89378 14.1853 3.81499 13.9136 3.86888 13.6838C3.89362 13.5813 4.08469 13.6291 4.08361 13.5315C4.08341 13.2984 4.03246 13.0872 3.88659 12.8387C3.87334 12.8159 3.61082 12.9123 3.62894 12.7439C3.6594 12.4697 3.53937 12.1035 3.78236 11.8323C3.85536 11.752 4.29438 11.8377 4.03017 11.5845C3.97512 11.5322 3.43779 11.4721 3.9394 11.3458C4.02329 11.3199 4.71428 11.097 4.36446 10.8305C4.272 10.7606 3.87511 10.5325 3.96916 10.4456C3.98343 10.4346 4.20188 10.5501 4.24651 10.4719C4.4002 10.1948 4.46332 9.88635 4.62918 9.6241C4.67366 9.55544 4.87286 9.74496 4.93138 9.64162C5.09193 9.35929 5.16973 8.98342 5.21937 8.68588C5.23719 8.57601 5.01905 8.55772 5.00171 8.54159C4.7251 8.26893 5.2044 8.41069 5.24739 8.38823C5.51366 8.23792 5.40068 7.96498 5.57167 7.80267C5.61793 7.75886 5.7944 7.92003 5.81859 7.92075C6.05612 7.92752 5.65114 7.77868 5.6549 7.68664C5.66575 7.4269 5.8305 7.23375 5.99311 7.0863C6.05301 7.03265 6.20457 7.2754 6.25426 7.22765C6.49609 7.00317 6.71947 6.7746 6.92483 6.50445C6.97873 6.4374 7.03343 6.36649 7.08787 6.29214C7.14134 6.21757 6.97403 6.08003 6.96081 6.03041C6.87414 5.67884 7.29859 5.94292 7.35786 5.95619C7.63382 6.01197 7.60005 5.81443 7.77135 5.7508C8.60332 5.44216 9.53618 4.90734 10.3173 4.61061C11.2176 4.26566 11.976 3.98618 12.8835 3.96341C13.0125 3.9608 13.143 3.96083 13.2756 3.96395C13.355 3.96558 13.28 4.24592 13.3482 4.25093C14.2314 4.3032 15.0915 4.19279 15.9527 4.29504C16.0229 4.30298 15.915 4.56471 16.0268 4.58639C16.2577 4.63277 16.5476 4.62866 16.7828 4.5549C16.8972 4.51943 16.7564 4.28573 16.8719 4.25474C17.1424 4.18229 17.4287 4.17999 17.6951 4.24147C17.8078 4.26824 17.6167 4.52561 17.7642 4.53947C18.771 4.64185 19.6997 4.80217 20.6911 4.65884C20.7587 4.64908 20.9371 4.12518 21.0504 4.26033C21.0253 4.41119 20.9831 4.58562 20.9495 4.74526C22.0535 5.08553 23.0626 5.35646 23.7625 5.84361C23.86 5.90996 23.9668 5.99552 24.0726 6.09363C24.1054 6.12423 23.847 6.27836 23.9073 6.33704C24.2601 6.68522 24.5468 7.18347 25.1433 7.56424C25.2023 7.60305 25.6137 7.29407 25.6556 7.50404C25.663 7.54077 25.7628 7.83265 25.7062 7.95652C25.697 7.97398 25.4641 8.05021 25.5066 8.13544C25.7562 8.62859 26.0778 9.12416 26.4492 9.5753C26.5097 9.64824 26.6995 9.45227 26.7447 9.50383C27.0653 9.87433 27.082 10.4189 27.4369 10.7328C27.6743 10.9451 28.0569 10.7036 28.519 10.7269C28.5846 10.7299 28.6441 10.9019 28.8888 10.8438C29.5092 10.7093 30.1517 10.4253 30.8154 10.2903C30.959 10.2548 30.8969 10.6649 31.186 10.3628C31.2055 10.3379 31.2482 10.0475 31.3433 9.95307C31.4099 9.88761 31.6787 9.89133 31.7535 9.77297C31.8267 9.65108 31.5927 9.6231 31.6639 9.44513C31.7365 9.26919 32.0338 9.23156 31.969 8.94966ZM14.231 32.7641C13.9384 32.851 14.4558 32.1174 14.4836 32.4065C14.4843 32.4214 14.2457 32.7601 14.231 32.7641ZM32.8595 44.716C32.4469 44.9248 32.6132 44.3427 32.9204 44.1741C33.227 44.0056 32.9848 44.6529 32.8595 44.716ZM34.8178 46.2954C34.413 46.4069 35.0593 45.3099 35.1765 45.6901C35.1834 45.7118 34.8414 46.2889 34.8178 46.2954ZM28.3818 9.96497C28.3941 9.96342 28.455 10.0904 28.4447 10.097C28.204 10.2655 28.0849 10.0178 28.3818 9.96497ZM36.7227 47.9167C36.5507 48.0084 36.4551 47.7057 36.6633 47.5873C36.8289 47.4907 36.9352 47.8015 36.7227 47.9167ZM6.36571 27.3569C6.35389 27.364 6.27289 27.2961 6.32948 27.2459C6.51101 27.0837 6.5609 27.2358 6.36571 27.3569ZM40.1519 50.2753C39.618 50.0418 38.708 50.7018 39.3928 50.9761C39.514 51.0216 39.3218 50.5469 39.5106 50.5475C39.8427 50.5415 39.7074 51.2171 40.1388 51.0374C40.2117 51.0022 40.1792 50.2857 40.1516 50.2735C40.1517 50.2741 40.1518 50.2747 40.1519 50.2753ZM13.5007 33.5636C13.4905 33.5709 13.3664 33.4917 13.3704 33.48C13.478 33.2045 13.7282 33.3639 13.5007 33.5636ZM2.28543 22.6037C2.25853 22.6084 2.08103 22.3038 2.09779 22.283C2.43816 21.9206 2.78857 22.5179 2.28543 22.6037ZM21.4571 39.5644C21.444 39.8929 21.5888 40.0216 21.8866 39.7824C21.7406 39.715 21.6034 39.6338 21.4571 39.5644Z" fill="#F8F9FB"/>
</svg>
