<svg width="34" height="56" viewBox="0 0 34 56" fill="none" xmlns="http://www.w3.org/2000/svg">
<path opacity="0.39" d="M0.00017184 12.7002C0.0136868 12.0327 0.258876 11.2503 0.516914 10.6855C0.597855 10.5064 0.728372 10.6407 0.791265 10.5214C0.914877 10.2874 0.902017 10.0381 1.04349 9.8144C1.09119 9.74064 1.30381 9.91131 1.34818 9.83308C1.58909 9.40826 1.66799 8.95998 1.88818 8.51749C2.45718 7.39838 3.04843 6.28411 4.02213 5.18993C4.92201 4.20655 5.96773 3.50493 7.0232 2.96354C7.74997 2.58862 8.7047 2.40359 9.40014 2.02632C9.48161 1.98174 9.35034 1.79565 9.36011 1.77227C9.52041 1.41156 9.59455 1.86143 9.78171 1.8547C10.5278 1.82702 11.265 1.61332 11.8808 1.34751C12.1422 1.23434 11.7489 0.889507 12.092 1.04882C12.1156 1.05951 12.1096 1.30499 12.1912 1.30817C12.3753 1.31485 12.6851 1.18811 12.8204 1.17224C13.0812 1.14264 13.1243 1.12931 13.3621 1.07264C13.6909 0.996661 14.1043 1.01869 14.4413 0.888094C14.5135 0.859451 14.3611 0.64703 14.472 0.580107C14.5828 0.513117 14.9035 0.463698 15.0225 0.496383C15.1406 0.529102 15.1349 0.723823 15.1627 0.762205C15.3924 1.08709 15.6523 0.515409 15.697 0.493646C16.1171 0.295202 16.5295 0.238446 16.9415 0.209614C17.3636 0.17611 17.7799 0.184475 18.2059 0.142627C18.871 0.0755959 19.5919 -0.0345501 20.2341 0.0105338C20.999 0.0659876 21.6196 0.276448 22.3422 0.395451C22.4183 0.408598 22.3847 0.1131 22.4792 0.129102C23.4899 0.302872 24.4676 0.641021 25.3273 1.22647C25.4125 1.28533 25.1932 1.45995 25.2704 1.53169C25.368 1.62113 25.4741 1.72973 25.582 1.83805C26.0305 2.268 26.4727 2.72226 27.2342 2.22012C27.571 2.51883 27.9528 2.91265 28.0701 3.33934C28.1438 3.61301 27.7851 3.63269 28.0722 3.76455C28.1365 3.79527 28.2493 3.56899 28.3339 3.62918C28.6927 3.88633 28.9285 4.29694 29.2745 4.56284C29.3453 4.61662 29.5036 4.47335 29.549 4.47085C29.9263 4.46203 29.6973 5.03922 29.7037 5.11843C29.7734 5.73457 30.0609 6.01634 30.2943 6.46566C30.3474 6.56943 30.5348 6.31361 30.5953 6.4097C30.907 6.91346 31.1429 7.47506 31.2507 8.04152C31.2741 8.16823 31.0053 8.15881 31.0049 8.224C31.0032 8.5057 31.4497 8.38377 31.4533 8.6528C31.4545 8.70935 31.2507 8.7606 31.2332 8.77816C30.9575 9.05158 31.4769 8.98181 31.5017 9.01373C31.8254 9.41381 31.4385 9.89113 31.669 10.3002C31.697 10.3492 31.9011 10.1406 31.9649 10.2843C32.1055 10.6002 32.2292 10.9248 32.3377 11.2594C32.5758 11.9881 32.6919 12.7656 32.6749 13.5072C32.6709 13.6785 32.4559 13.5922 32.4337 13.607C32.0853 13.8339 32.6047 13.8629 32.6317 13.9161C32.8302 14.331 32.4373 14.76 33.0609 15.0159C32.9629 16.8589 33.0251 18.773 32.0008 20.342C31.9885 20.3617 31.7584 20.2531 31.7349 20.2923C31.4468 20.7614 31.8498 20.7734 32.1888 21.2709C32.2729 21.3985 31.6364 21.4697 31.5888 21.4761C31.4125 21.5057 31.0914 21.2936 31.0532 21.3108C30.7499 21.4505 31.9244 21.8431 31.8035 22.1582C31.7978 22.1671 31.6015 22.044 31.5703 22.0617C31.4729 22.116 31.5256 22.2287 31.4214 22.2778C31.1802 22.39 30.6022 22.2175 30.8108 22.6185C30.8376 22.6702 31.5058 22.8958 31.3549 23.1552C31.2954 23.2585 31.0859 23.7387 30.98 23.8498C30.8753 23.9613 30.716 23.772 30.7026 23.7772C30.2631 23.9937 30.2169 23.8061 29.7367 23.776C29.2589 23.7423 30.2178 24.1762 30.2857 24.3006C30.3533 24.4255 30.0023 24.5612 29.8941 24.5804C29.7859 24.6003 29.7003 24.4566 29.6286 24.4871C29.1579 24.6876 30.0011 24.8938 30.0818 25.0932C30.1112 25.1664 30.1164 25.2246 30.1037 25.2712C30.0313 25.5307 29.4289 25.4344 29.248 25.6051C29.1893 25.661 29.3742 25.6997 29.3511 25.7685C29.2565 26.04 28.9639 26.0455 28.9751 26.4333C28.9794 26.493 29.222 26.9738 28.8456 26.9141C28.7914 26.9053 28.6684 26.7411 28.5661 26.8134C28.4117 26.9233 28.1965 27.1565 28.1414 27.3453C28.0996 27.4865 28.4534 27.5424 28.2695 27.6282C28.1875 27.6661 28.1201 27.439 27.9795 27.5184C27.8412 27.595 27.6287 27.8993 27.5497 28.0161C27.4706 28.1337 27.7117 28.2165 27.718 28.2354C27.7523 28.3467 27.6837 28.6335 27.6683 28.6532C26.9597 29.6411 25.9466 30.2504 25.3056 31.2366C25.2546 31.3141 25.4909 31.4305 25.4851 31.444C25.3658 31.7553 25.0014 31.1287 24.6864 31.1504C25.1057 31.4592 24.9505 31.4985 24.8515 31.7049C24.8044 31.8042 24.9956 31.8895 25.0052 31.9102C25.137 32.2282 24.7635 32.0583 24.6836 32.0277C24.3885 31.9163 24.5834 32.2291 24.3857 32.155C24.1896 32.0812 24.0731 31.7674 23.9388 31.9307C24.0417 32.0968 24.5141 32.2923 24.4689 32.4665C24.2997 33.1257 23.2628 33.7318 22.9081 34.0692C22.5537 34.4077 22.4741 34.5469 22.2337 34.7132C21.7996 35.0118 22.1926 35.1151 22.0998 35.4623C22.0054 35.8106 21.4556 35.0963 21.2838 35.0014C21.1128 34.9058 21.2243 35.0747 21.1094 35.0448C20.9946 35.0149 20.9802 34.8387 20.863 34.9082C20.7869 34.9533 20.7635 35.1768 20.7872 35.3748C20.7999 35.4761 20.8209 35.5769 20.8577 35.6387C21.0801 36.0114 21.5046 36.2184 21.1459 36.3477C21.1251 36.3549 21.0098 36.1418 20.9384 36.1779C20.3783 36.4682 19.9144 36.8988 19.3674 37.2035C19.2917 37.2454 19.1658 37.0063 19.1198 37.0286C18.6399 37.2588 19.0736 37.4494 19.211 37.9915C18.8077 37.4815 18.4243 37.3006 18.1434 37.5643C17.9751 37.722 18.1994 37.8986 18.2297 38.1454C18.239 38.2197 17.9876 38.1916 18.0583 38.3079C18.2886 38.6889 18.7361 38.9341 18.3151 39.0687C18.2961 39.0741 18.1718 38.8639 18.1184 38.895C17.7721 39.0956 18.0555 39.4535 17.789 39.784C17.5797 40.0437 16.9685 40.2436 16.6652 40.4703C16.1686 39.9385 16.0294 40.3013 16.2719 40.7631C16.0807 40.9169 15.9103 41.1183 15.6937 41.2287C15.6193 41.2668 15.5122 41.0779 15.4892 41.0684C15.1316 40.9157 15.3897 41.3439 15.3651 41.3937C15.0819 41.9198 14.4905 41.9716 14.3495 42.6043C14.3447 42.6269 14.6705 43.0144 14.3105 42.8475C14.2861 42.8355 14.2582 42.5449 14.0602 42.7084C13.8618 42.8723 13.33 43.0037 13.233 43.4189C13.2095 43.519 13.3365 43.9642 12.99 43.8512C12.943 43.8357 12.8617 43.713 12.7818 43.6778C12.5258 43.5664 12.8346 43.9776 12.4435 43.7505C12.0514 43.5244 11.641 43.4659 11.5852 43.932C11.5829 43.9462 11.8003 44.2981 11.7147 44.3706C11.578 44.486 11.337 44.5986 11.2019 44.7307C11.1377 44.7936 11.3526 44.9362 11.3445 44.9503C11.0073 45.4654 10.5429 45.5978 10.0069 45.9741C9.90832 46.0427 9.90176 46.5227 9.54709 46.4865C9.16024 46.4455 8.49493 45.3739 8.28062 45.9854C8.18996 46.2349 9.06644 47.5636 8.19866 47.2715C7.75169 47.9788 6.92572 48.1977 6.53912 48.9734C6.5229 49.0069 6.74268 49.4028 6.6767 49.4587C6.57794 49.5414 6.38539 49.4438 6.31116 49.4974C5.99437 49.7205 5.86979 50.0873 5.58554 50.3295C5.47952 50.4202 5.36546 50.236 5.24014 50.3433C5.11196 50.4538 5.22751 50.7309 4.97474 50.793C4.78354 50.8389 4.25575 50.5626 4.05094 50.6744C4.44406 51.0745 4.32173 51.1807 4.23412 51.4802C4.21762 51.5378 4.39616 51.6347 4.39555 51.669C4.3972 51.8106 4.21432 51.7659 4.22399 51.9124C4.22615 51.9478 4.36218 52.0826 4.37177 52.119C4.45944 52.4324 3.96466 52.3236 3.8773 52.3061C3.54771 52.2372 3.67471 52.4646 3.49605 52.489C3.31983 52.5111 3.36068 52.2653 3.20034 52.3347C3.11759 52.3705 3.03934 52.4174 2.96551 52.4707C2.73782 52.6437 2.54854 52.8774 2.3743 53.0625C2.28355 53.1606 2.53497 53.2629 2.52639 53.2809C2.38989 53.5312 2.00221 53.5581 2.27802 54.0128C1.17102 53.2736 2.26319 54.2234 1.79424 54.3393C1.75641 54.3482 1.27977 53.9463 1.29167 53.8003C1.30333 53.6546 1.56623 53.6559 1.57037 53.4382C1.57109 53.3876 1.28525 52.8321 1.27848 52.7865C1.23138 52.4243 1.94934 53.017 1.99607 53.0414C2.50363 53.3007 2.21921 52.6759 2.23594 52.5925C2.28303 52.3549 2.41314 52.2172 2.52586 52.0737C2.5278 52.0719 2.53306 52.0657 2.53503 52.0639C2.6028 51.9801 2.66528 51.8931 2.70065 51.7783C2.76428 51.579 2.33456 51.1467 2.44907 51.0548C2.83344 50.7462 3.55649 51.2235 3.34589 50.3878C3.30198 50.2088 2.76362 49.8052 3.37931 49.9289C3.41786 49.9369 3.93777 50.0942 3.83138 49.7724C3.81785 49.7319 3.68003 49.5952 3.68576 49.5664C3.72667 49.3767 3.9136 49.409 3.9907 49.2283C4.06813 49.0473 4.14005 48.8212 4.33524 48.7215C4.45356 48.6604 4.81583 48.8116 4.92057 48.833C5.21679 48.8998 5.05668 48.4714 5.34371 48.6229C5.63409 48.7734 5.81954 49.2511 6.15257 49.2065C5.80767 48.8384 5.46287 48.4515 5.12053 48.0769C5.56392 47.6697 6.09532 47.3825 6.51325 46.949C6.56393 46.8956 6.32164 46.7525 6.37124 46.6902C6.58244 46.4271 6.92876 46.3624 7.12586 46.0668C7.28156 45.8335 7.29085 45.4272 7.44671 45.1782C7.97302 45.4734 8.13285 45.0498 8.3926 44.875C8.48165 44.8152 8.58258 44.932 8.67153 44.9167C9.00477 44.8559 8.55698 44.5782 8.55794 44.4664C8.56465 43.9869 9.38263 44.802 9.64694 44.511C9.66109 44.496 9.42257 43.8736 9.42206 43.8211C9.41318 43.4847 9.5975 43.9499 9.72953 43.887C9.97025 43.7727 10.1998 43.7572 10.2949 43.4182C10.3213 43.3195 10.2073 42.8987 10.5349 42.9966C10.5779 43.0094 10.709 43.1654 10.7302 43.1616C11.1032 43.0811 10.6708 42.6105 10.6548 42.3271C10.6394 42.0433 11.1519 42.165 11.2822 42.2166C11.6202 42.3492 11.2936 42.3996 11.3099 42.4286C11.5038 42.7743 11.6102 42.582 11.7498 42.4942C12.198 42.9327 12.3329 42.7528 11.8904 42.4036C11.8418 42.3658 11.7927 42.493 11.7498 42.4942C11.4272 41.9527 11.5498 41.7277 12.1432 41.9565C12.4205 42.0644 12.552 42.3725 12.7506 42.0255C12.8412 41.8679 12.4952 41.6015 12.526 41.41C12.5988 40.9706 13.2054 40.9495 13.4271 40.6512C13.5075 40.543 13.251 40.461 13.3004 40.3811C13.43 40.1695 13.7031 40.1543 13.8155 39.9221C13.8255 39.9008 13.6164 39.7585 13.6686 39.7045C14.0593 39.2932 14.5283 39.0654 14.9567 38.6632C15.1659 38.4667 15.4403 38.0164 15.6736 37.8317C16.0786 37.5088 16.7816 37.3341 17.0374 36.9684C17.2046 36.731 16.9886 36.5955 16.9604 36.3891C16.9059 35.9891 17.6121 36.1225 17.7151 36.1493C17.7184 36.1503 17.5821 36.3618 17.7642 36.363C18.0021 36.5014 17.7139 36.152 17.7151 36.1493C17.782 36.1663 18.1756 35.8664 18.214 35.764C18.2345 35.7084 18.0508 35.5601 18.0645 35.5343C18.3906 34.9305 18.8235 34.4313 19.3799 34.0469C19.3916 34.0421 19.5608 34.2431 19.5862 34.2295C19.611 34.2167 19.6338 34.2029 19.655 34.1882L19.5829 34.2619C19.853 34.0504 19.7956 33.6835 19.861 33.3489C19.931 32.9895 20.1435 32.8493 20.6022 33.0122C20.7186 32.7984 21.0929 32.6781 21.3131 32.6119C21.533 32.5461 21.1696 32.1867 21.1733 32.1673C21.2849 31.5536 21.7081 31.5134 22.105 31.1237C22.2952 30.9382 22.5778 30.4937 22.7192 30.2395C22.8299 30.0388 23.0086 30.0119 23.0829 29.8037C23.093 29.7757 22.9006 29.6518 22.8993 29.6396C22.8377 29.2892 23.1936 29.7294 23.3003 29.7563C23.6888 29.853 23.9056 29.8928 23.9637 29.5549C23.9779 29.4764 23.4842 28.8173 23.5257 28.6922C23.5813 28.5297 23.7657 28.7573 23.8175 28.5829C23.822 28.5682 23.6828 28.4593 23.7534 28.3841C24.082 28.0304 24.4877 27.6832 24.7772 27.2786C24.8171 27.2239 24.5422 27.1213 24.5958 27.0399C24.8489 26.6565 25.1556 26.2651 25.5204 25.9865C25.611 25.9184 25.73 26.0887 25.791 26.1038C26.1613 26.1943 25.8666 25.7253 25.877 25.6937C26.1352 24.9028 26.864 24.6529 27.0642 23.8856C27.0692 23.8612 26.9497 23.6325 26.9674 23.5065C26.9833 23.4224 27.0512 23.3694 27.2317 23.4062C27.2636 23.4134 27.7583 23.5146 27.5295 23.2434C27.515 23.2267 27.2539 23.1889 27.3504 23.0619C27.4473 22.9339 27.4154 22.6359 27.7552 22.5649C27.8619 22.5433 28.3682 22.6049 28.1105 22.2533C28.0942 22.2263 27.4369 21.5845 28.026 21.7309C28.1227 21.7551 28.6944 22.0298 28.4956 21.6743C28.4564 21.6066 28.2937 21.6274 28.2608 21.481C28.2087 21.2583 28.4596 21.0948 28.2782 20.7829C28.2464 20.7273 27.9029 20.4238 28.2533 20.415C28.3084 20.4132 28.4932 20.5232 28.5395 20.4652C28.7614 20.1877 28.7367 19.8134 28.9719 19.5337C29.0548 19.4336 29.3656 19.5884 29.4888 19.4905C29.6121 19.393 29.7645 19.1628 29.6446 18.9953C29.5243 18.8297 28.9624 18.8383 28.964 18.6435C28.9657 17.807 29.3927 17.0759 29.4702 16.2678C29.4811 16.1496 29.2839 16.2408 29.2842 16.0691C29.2942 15.4233 29.0145 14.406 29.3009 13.7936C29.5331 13.2876 29.8993 13.7942 29.9563 13.419C29.9804 13.2303 29.3206 13.2065 29.2917 13.1755C29.055 12.9173 29.1295 12.6551 29.0615 12.3964C29.041 12.3225 29.0127 12.2496 28.9699 12.1785C28.9247 12.1036 28.7104 12.2677 28.6747 12.2034C28.5505 11.9842 28.571 11.7021 28.4706 11.4885C28.425 11.3934 28.2481 11.4798 28.2288 11.3841C28.1806 11.1561 28.1865 10.939 28.2775 10.6656C28.2858 10.6405 28.5626 10.6802 28.5098 10.5193C28.423 10.2574 28.4643 9.87421 28.1702 9.65948C28.0821 9.59606 27.6705 9.77119 27.8763 9.46865C27.9193 9.40604 28.4324 9.23553 27.9155 9.21621C27.828 9.20831 27.1058 9.13396 27.3926 8.80056C27.4685 8.71296 27.8093 8.40732 27.6992 8.34193C27.683 8.33413 27.4933 8.49254 27.4334 8.42533C27.2254 8.1862 27.0996 7.89762 26.8828 7.67558C26.825 7.61767 26.6696 7.84447 26.5909 7.75555C26.3751 7.51276 26.2209 7.16129 26.1105 6.88057C26.0702 6.77681 26.2797 6.71356 26.2934 6.69418C26.5072 6.36997 26.0679 6.60828 26.0212 6.59525C25.7295 6.50358 25.7832 6.21312 25.5822 6.0899C25.5279 6.05667 25.3888 6.25101 25.3652 6.25674C25.1343 6.31275 25.4995 6.08296 25.4767 5.99371C25.4121 5.74191 25.2108 5.58723 25.021 5.47681C24.9513 5.43679 24.8535 5.70575 24.795 5.66937C24.5118 5.50008 24.2458 5.32294 23.9887 5.1014C23.9221 5.04702 23.8538 4.98903 23.7851 4.92762C23.7173 4.8658 23.8523 4.69648 23.855 4.6452C23.8666 4.28329 23.5064 4.62985 23.4512 4.65515C23.1928 4.76708 23.1848 4.56684 23.004 4.54021C22.126 4.41129 21.1024 4.08211 20.2766 3.95428C19.3242 3.80405 18.5243 3.68836 17.632 3.85475C17.5053 3.87902 17.3776 3.90619 17.2485 3.93682C17.1712 3.95491 17.3029 4.21353 17.2371 4.23263C16.3841 4.46738 15.5199 4.53819 14.6988 4.81727C14.6317 4.83963 14.7917 5.0732 14.6868 5.11766C14.4707 5.21102 14.1863 5.26728 13.9408 5.24404C13.8215 5.23313 13.9107 4.97527 13.7913 4.96896C13.5116 4.95434 13.2311 5.01161 12.9833 5.12713C12.8786 5.17675 13.1191 5.38875 12.9777 5.43298C12.0142 5.74246 11.1391 6.09235 10.1396 6.15828C10.0714 6.1628 9.788 5.68742 9.70522 5.84319C9.76114 5.98553 9.83875 6.14736 9.90478 6.29653C8.89562 6.85891 7.96489 7.33372 7.38163 7.95574C7.30002 8.04092 7.21332 8.14682 7.13021 8.26478C7.10454 8.30152 7.38929 8.39857 7.34253 8.4685C7.06983 8.88243 6.89301 9.42939 6.38871 9.92586C6.33908 9.97608 5.87239 9.7594 5.87505 9.97349C5.87544 10.011 5.83851 10.3172 5.9197 10.4266C5.93229 10.4418 6.17591 10.4679 6.1521 10.5601C6.01046 11.0944 5.799 11.646 5.52943 12.1645C5.4855 12.2484 5.25906 12.0962 5.22555 12.156C4.989 12.5851 5.08585 13.1212 4.80401 13.502C4.61589 13.7591 4.19147 13.6024 3.74433 13.7212C3.68076 13.7379 3.65834 13.9184 3.40694 13.9125C2.77206 13.9099 2.08463 13.7657 1.40737 13.7717C1.25945 13.7667 1.4055 14.155 1.05989 13.9197C1.03566 13.8993 0.933491 13.6241 0.82083 13.5515C0.742111 13.5014 0.47991 13.5609 0.38222 13.4607C0.285248 13.3566 0.508306 13.2806 0.401645 13.1214C0.294049 12.9644 -0.00452644 12.9893 0.00017184 12.7002ZM22.3019 32.3062C22.6062 32.3304 21.9475 31.7205 21.9805 32.009C21.9828 32.0237 22.2867 32.3054 22.3019 32.3062ZM6.56543 47.87C7.01242 47.9885 6.72867 47.4537 6.39321 47.3526C6.0582 47.2516 6.4297 47.8344 6.56543 47.87ZM4.97827 49.8221C5.39737 49.847 4.53715 48.9084 4.5016 49.3046C4.4993 49.3273 4.95388 49.8207 4.97827 49.8221ZM3.72015 12.9474C3.70774 12.9485 3.67456 13.0853 3.68602 13.0897C3.95654 13.2044 4.02151 12.9374 3.72015 12.9474ZM3.45205 51.804C3.63938 51.8579 3.66999 51.542 3.44172 51.4695C3.25966 51.4094 3.22028 51.7355 3.45205 51.804ZM28.8711 25.3819C28.8841 25.3864 28.9492 25.3032 28.8834 25.2658C28.6722 25.1449 28.655 25.304 28.8711 25.3819ZM0.588223 54.824C1.06189 54.4847 2.08923 54.941 1.47648 55.3517C1.36738 55.4214 1.45668 54.9172 1.2721 54.957C0.946007 55.0202 1.21878 55.6528 0.759497 55.5667C0.680815 55.5475 0.563666 54.8399 0.58809 54.8222C0.588135 54.8228 0.588179 54.8234 0.588223 54.824ZM23.1825 32.9364C23.1939 32.9414 23.2989 32.8382 23.2925 32.8275C23.13 32.5805 22.9184 32.7884 23.1825 32.9364ZM31.874 19.8843C31.9012 19.8833 32.0115 19.5484 31.9908 19.5315C31.5825 19.2479 31.364 19.9049 31.874 19.8843ZM16.6476 40.4604C16.7287 40.779 16.6138 40.935 16.2727 40.7629C16.4016 40.6666 16.5189 40.5586 16.6476 40.4604Z" fill="#F8F9FB"/>
</svg>
