<svg width="22" height="18" viewBox="0 0 22 18" fill="none" xmlns="http://www.w3.org/2000/svg">
<g clip-path="url(#clip0_1083_2990)">
<path d="M12.4456 8.98477L14.5904 11.4184L17.4746 13.2478L17.9763 9.00012L17.4746 4.84827L14.5351 6.45538L12.4456 8.98477Z" fill="#00832D"/>
<path d="M0 12.8525V16.4722C0 17.2986 0.675813 17.9697 1.50855 17.9697H5.15488L5.90992 15.2348L5.15488 12.8525L2.65323 12.103L0 12.8525Z" fill="#0066DA"/>
<path d="M5.15488 0L0 5.11712L2.65341 5.86484L5.15488 5.11712L5.89617 2.76731L5.15488 0Z" fill="#E94235"/>
<path d="M6.10352e-05 12.8542H5.15485V5.11707H6.10352e-05V12.8542Z" fill="#2684FC"/>
<path d="M20.7676 2.16671L17.4745 4.84846V13.2479L20.7812 15.94C21.2762 16.325 22.0003 15.9742 22.0003 15.3495V2.74527C22.0003 2.11374 21.2589 1.76466 20.7675 2.1668" fill="#00AC47"/>
<path d="M12.4456 8.98486V12.8526H5.15485V17.9697H15.9661C16.7989 17.9697 17.4746 17.2986 17.4746 16.4722V13.2479L12.4456 8.98486Z" fill="#00AC47"/>
<path d="M15.9661 0H5.15485V5.11712H12.4456V8.98482L17.4747 4.84823V1.49758C17.4747 0.670948 16.7989 8.53081e-05 15.9661 8.53081e-05" fill="#FFBA00"/>
</g>
<defs>
<clipPath id="clip0_1083_2990">
<rect width="22" height="18" fill="white"/>
</clipPath>
</defs>
</svg>
