<svg width="22" height="21" viewBox="0 0 22 21" fill="none" xmlns="http://www.w3.org/2000/svg">
<g clip-path="url(#clip0_1083_2769)">
<path d="M15.3453 7.84668H21.0279C21.5648 7.84668 22 8.29172 22 8.84062V14.1329C22 16.1503 20.4005 17.7858 18.4273 17.7858H18.4104C16.4373 17.7861 14.8375 16.1509 14.8372 14.1334V8.36623C14.8372 8.298 14.8503 8.23043 14.8758 8.16739C14.9013 8.10434 14.9388 8.04706 14.9859 7.99881C15.0331 7.95056 15.0892 7.91229 15.1508 7.88618C15.2125 7.86008 15.2785 7.84666 15.3453 7.84668Z" fill="#5059C9"/>
<path d="M19.1861 6.80045C20.4576 6.80045 21.4884 5.74652 21.4884 4.44643C21.4884 3.14634 20.4576 2.09241 19.1861 2.09241C17.9145 2.09241 16.8837 3.14634 16.8837 4.44643C16.8837 5.74652 17.9145 6.80045 19.1861 6.80045Z" fill="#5059C9"/>
<path d="M12.0232 6.80049C13.8599 6.80049 15.3489 5.27814 15.3489 3.40024C15.3489 1.52234 13.8599 0 12.0232 0C10.1866 0 8.69763 1.52234 8.69763 3.40024C8.69763 5.27814 10.1866 6.80049 12.0232 6.80049Z" fill="#7B83EB"/>
<path d="M16.4575 7.84668H7.07737C6.54688 7.86012 6.12724 8.31026 6.13953 8.85266V14.8888C6.06545 18.1437 8.58402 20.8448 11.7674 20.9245C14.9508 20.8448 17.4694 18.1437 17.3954 14.8888V8.85266C17.4077 8.31026 16.988 7.86012 16.4575 7.84668Z" fill="#7B83EB"/>
<path opacity="0.1" d="M12.2791 7.84668V16.3054C12.2779 16.4951 12.2219 16.6802 12.1181 16.8375C12.0143 16.9948 11.8674 17.1172 11.6959 17.1895C11.5841 17.2378 11.4641 17.2627 11.3428 17.2627H6.58971C6.5232 17.09 6.46184 16.9174 6.41062 16.7396C6.23152 16.1393 6.14015 15.5153 6.13948 14.8877V8.85108C6.1272 8.30956 6.54614 7.86012 7.07577 7.84677L12.2791 7.84668Z" fill="black"/>
<path opacity="0.2" d="M11.7674 7.84668V16.8285C11.7674 16.9525 11.7431 17.0753 11.6958 17.1895C11.6252 17.3649 11.5054 17.5151 11.3516 17.6212C11.1977 17.7273 11.0167 17.7846 10.8311 17.7858H6.83029C6.74332 17.6132 6.66142 17.4405 6.58983 17.2627C6.52106 17.0917 6.46127 16.9171 6.41074 16.7396C6.23164 16.1393 6.14027 15.5153 6.13961 14.8877V8.85108C6.12732 8.30956 6.54626 7.86012 7.0759 7.84677L11.7674 7.84668Z" fill="black"/>
<path opacity="0.2" d="M11.7674 7.84668V15.7823C11.7636 16.3093 11.3467 16.7357 10.8311 16.7396H6.41068C6.23158 16.1393 6.14021 15.5153 6.13955 14.8877V8.85108C6.12726 8.30956 6.5462 7.86012 7.07583 7.84677L11.7674 7.84668Z" fill="black"/>
<path opacity="0.2" d="M11.2558 7.84668V15.7823C11.2519 16.3093 10.835 16.7357 10.3195 16.7396H6.41068C6.23158 16.1393 6.14021 15.5153 6.13955 14.8877V8.85108C6.12726 8.30956 6.5462 7.86012 7.07583 7.84677L11.2558 7.84668Z" fill="black"/>
<path opacity="0.1" d="M12.2791 5.14224V6.78999C12.1921 6.79526 12.1102 6.80054 12.0233 6.80054C11.9363 6.80054 11.8544 6.79526 11.7674 6.78999C11.5948 6.77827 11.4235 6.75027 11.2559 6.70634C10.7451 6.58266 10.2702 6.33713 9.87005 5.98982C9.46989 5.64251 9.15582 5.2033 8.95351 4.70809C8.88287 4.5394 8.82805 4.36423 8.78979 4.18494H11.3428C11.8591 4.18696 12.2771 4.61434 12.2791 5.14224Z" fill="black"/>
<path opacity="0.2" d="M11.7674 5.66522V6.78991C11.5947 6.77819 11.4235 6.75019 11.2558 6.70626C10.7451 6.58256 10.2702 6.33702 9.87006 5.98972C9.46992 5.64241 9.15585 5.2032 8.95355 4.70801H10.8311C11.3474 4.70994 11.7654 5.13741 11.7674 5.66522Z" fill="black"/>
<path opacity="0.2" d="M11.7674 5.66522V6.78991C11.5947 6.77819 11.4235 6.75019 11.2558 6.70626C10.7451 6.58256 10.2702 6.33702 9.87006 5.98972C9.46992 5.64241 9.15585 5.2032 8.95355 4.70801H10.8311C11.3474 4.70994 11.7654 5.13741 11.7674 5.66522Z" fill="black"/>
<path opacity="0.2" d="M11.2558 5.66531V6.70635C10.7451 6.58266 10.2702 6.33711 9.87003 5.98979C9.46986 5.64246 9.15579 5.20323 8.95349 4.70801H10.3196C10.8359 4.71003 11.2539 5.1375 11.2558 5.66531Z" fill="black"/>
<path d="M0.937836 4.70797H10.3179C10.8359 4.70797 11.2558 5.13729 11.2558 5.66686V15.2575C11.2558 15.7871 10.8359 16.2164 10.318 16.2164H0.937836C0.419891 16.2164 0 15.7871 0 15.2575V5.66694C0 5.1372 0.419891 4.70797 0.937836 4.70797Z" fill="url(#paint0_linear_1083_2769)"/>
<path d="M8.09601 8.3582H6.22086V13.5789H5.02624V8.3582H3.15985V7.34546H8.09601V8.3582Z" fill="white"/>
</g>
<defs>
<linearGradient id="paint0_linear_1083_2769" x1="195.536" y1="-70.2126" x2="954.778" y2="1215.88" gradientUnits="userSpaceOnUse">
<stop stop-color="#5A62C3"/>
<stop offset="0.5" stop-color="#4D55BD"/>
<stop offset="1" stop-color="#3940AB"/>
</linearGradient>
<clipPath id="clip0_1083_2769">
<rect width="22" height="21" fill="white"/>
</clipPath>
</defs>
</svg>
