<svg width="16" height="16" viewBox="0 0 16 16" fill="none" xmlns="http://www.w3.org/2000/svg">
<path fill-rule="evenodd" clip-rule="evenodd" d="M8.39533 15.5051L8.38799 15.5065L8.34066 15.5298L8.32733 15.5325L8.31799 15.5298L8.27066 15.5065C8.26355 15.5042 8.25821 15.5054 8.25466 15.5098L8.25199 15.5165L8.24066 15.8018L8.24399 15.8151L8.25066 15.8238L8.31999 15.8731L8.32999 15.8758L8.33799 15.8731L8.40733 15.8238L8.41533 15.8131L8.41799 15.8018L8.40666 15.5171C8.40488 15.51 8.4011 15.506 8.39533 15.5051ZM8.57199 15.4298L8.56333 15.4311L8.43999 15.4931L8.43333 15.4998L8.43133 15.5071L8.44333 15.7938L8.44666 15.8018L8.45199 15.8065L8.58599 15.8685C8.59444 15.8707 8.60088 15.8689 8.60533 15.8631L8.60799 15.8538L8.58533 15.4445C8.5831 15.4365 8.57866 15.4316 8.57199 15.4298ZM8.09533 15.4311C8.09239 15.4293 8.08888 15.4288 8.08552 15.4295C8.08217 15.4303 8.07923 15.4323 8.07733 15.4351L8.07333 15.4445L8.05066 15.8538C8.0511 15.8618 8.05488 15.8671 8.06199 15.8698L8.07199 15.8685L8.20599 15.8065L8.21266 15.8011L8.21533 15.7938L8.22666 15.5071L8.22466 15.4991L8.21799 15.4925L8.09533 15.4311Z" fill="#454547"/>
<path fill-rule="evenodd" clip-rule="evenodd" d="M8.66671 8.66667C9.37395 8.66667 10.0522 8.94762 10.5523 9.44771C11.0524 9.94781 11.3334 10.6261 11.3334 11.3333V12.6667C11.3334 12.8435 11.2631 13.013 11.1381 13.1381C11.0131 13.2631 10.8435 13.3333 10.6667 13.3333C10.4899 13.3333 10.3203 13.2631 10.1953 13.1381C10.0703 13.013 10 12.8435 10 12.6667V11.3333C10 10.9797 9.85956 10.6406 9.60952 10.3905C9.35947 10.1405 9.02033 10 8.66671 10H4.00004C3.64642 10 3.30728 10.1405 3.05723 10.3905C2.80718 10.6406 2.66671 10.9797 2.66671 11.3333V12.6667C2.66671 12.8435 2.59647 13.013 2.47145 13.1381C2.34642 13.2631 2.17685 13.3333 2.00004 13.3333C1.82323 13.3333 1.65366 13.2631 1.52864 13.1381C1.40361 13.013 1.33337 12.8435 1.33337 12.6667V11.3333C1.33337 10.6261 1.61433 9.94781 2.11442 9.44771C2.61452 8.94762 3.2928 8.66667 4.00004 8.66667H8.66671ZM12.6667 8.66667C13.1971 8.66667 13.7058 8.87738 14.0809 9.25245C14.456 9.62753 14.6667 10.1362 14.6667 10.6667V12C14.6667 12.1768 14.5965 12.3464 14.4714 12.4714C14.3464 12.5964 14.1769 12.6667 14 12.6667C13.8232 12.6667 13.6537 12.5964 13.5286 12.4714C13.4036 12.3464 13.3334 12.1768 13.3334 12V10.6667C13.3334 10.4899 13.2631 10.3203 13.1381 10.1953C13.0131 10.0702 12.8435 10 12.6667 10H11.7227C11.4921 9.47179 11.1285 9.0124 10.6674 8.66667H12.6667ZM6.33337 2C7.12902 2 7.89208 2.31607 8.45469 2.87868C9.0173 3.44129 9.33337 4.20435 9.33337 5C9.33337 5.79565 9.0173 6.55871 8.45469 7.12132C7.89208 7.68393 7.12902 8 6.33337 8C5.53772 8 4.77466 7.68393 4.21205 7.12132C3.64944 6.55871 3.33337 5.79565 3.33337 5C3.33337 4.20435 3.64944 3.44129 4.21205 2.87868C4.77466 2.31607 5.53772 2 6.33337 2ZM12 4C12.5305 4 13.0392 4.21071 13.4143 4.58579C13.7893 4.96086 14 5.46957 14 6C14 6.53043 13.7893 7.03914 13.4143 7.41421C13.0392 7.78929 12.5305 8 12 8C11.4696 8 10.9609 7.78929 10.5858 7.41421C10.2108 7.03914 10 6.53043 10 6C10 5.46957 10.2108 4.96086 10.5858 4.58579C10.9609 4.21071 11.4696 4 12 4ZM6.33337 3.33333C5.89135 3.33333 5.46742 3.50893 5.15486 3.82149C4.8423 4.13405 4.66671 4.55797 4.66671 5C4.66671 5.44203 4.8423 5.86595 5.15486 6.17851C5.46742 6.49107 5.89135 6.66667 6.33337 6.66667C6.7754 6.66667 7.19932 6.49107 7.51189 6.17851C7.82445 5.86595 8.00004 5.44203 8.00004 5C8.00004 4.55797 7.82445 4.13405 7.51189 3.82149C7.19932 3.50893 6.7754 3.33333 6.33337 3.33333ZM12 5.33333C11.8232 5.33333 11.6537 5.40357 11.5286 5.5286C11.4036 5.65362 11.3334 5.82319 11.3334 6C11.3334 6.17681 11.4036 6.34638 11.5286 6.4714C11.6537 6.59643 11.8232 6.66667 12 6.66667C12.1769 6.66667 12.3464 6.59643 12.4714 6.4714C12.5965 6.34638 12.6667 6.17681 12.6667 6C12.6667 5.82319 12.5965 5.65362 12.4714 5.5286C12.3464 5.40357 12.1769 5.33333 12 5.33333Z" fill="#454547"/>
</svg>
