<svg width="18" height="18" viewBox="0 0 18 18" fill="none" xmlns="http://www.w3.org/2000/svg">
<path d="M4.19983 8.40002C4.25287 8.40002 4.30392 8.42111 4.34143 8.45862C4.37894 8.49613 4.40002 8.54718 4.40002 8.60022C4.39997 8.65319 4.37889 8.70436 4.34143 8.74182C4.30394 8.77921 4.25278 8.80042 4.19983 8.80042C4.14686 8.80036 4.09569 8.77928 4.05823 8.74182C4.02077 8.70436 3.99969 8.65319 3.99963 8.60022C3.99963 8.54727 4.02084 8.49611 4.05823 8.45862C4.09569 8.42116 4.14686 8.40008 4.19983 8.40002ZM6.60022 8.40002C6.65319 8.40008 6.70436 8.42116 6.74182 8.45862C6.77921 8.49611 6.80042 8.54727 6.80042 8.60022C6.80036 8.65319 6.77928 8.70436 6.74182 8.74182C6.70436 8.77928 6.65319 8.80036 6.60022 8.80042C6.54727 8.80042 6.49611 8.77921 6.45862 8.74182C6.42116 8.70436 6.40008 8.65319 6.40002 8.60022C6.40002 8.54718 6.42111 8.49613 6.45862 8.45862C6.49613 8.42111 6.54718 8.40002 6.60022 8.40002ZM8.99963 8.40002C9.05263 8.40002 9.10374 8.42117 9.14124 8.45862C9.17874 8.49613 9.19983 8.54718 9.19983 8.60022C9.19978 8.65319 9.1787 8.70436 9.14124 8.74182C9.10376 8.77915 9.05254 8.80042 8.99963 8.80042C8.94692 8.80031 8.89639 8.77899 8.85901 8.74182C8.82155 8.70436 8.80047 8.65319 8.80042 8.60022C8.80042 8.54718 8.8215 8.49613 8.85901 8.45862C8.89641 8.42132 8.94682 8.40013 8.99963 8.40002ZM11.4 8.40002C11.4531 8.40002 11.5041 8.42111 11.5416 8.45862C11.5791 8.49612 11.6002 8.54722 11.6002 8.60022C11.6002 8.65319 11.5791 8.70436 11.5416 8.74182C11.5041 8.77927 11.453 8.80042 11.4 8.80042C11.347 8.80042 11.2959 8.77927 11.2584 8.74182C11.221 8.70436 11.1999 8.65319 11.1998 8.60022C11.1998 8.54722 11.221 8.49612 11.2584 8.45862C11.2959 8.42111 11.347 8.40002 11.4 8.40002ZM13.8004 8.40002C13.8532 8.40013 13.9036 8.42132 13.941 8.45862C13.9785 8.49612 13.9996 8.54718 13.9996 8.60022C13.9996 8.65319 13.9785 8.70436 13.941 8.74182C13.9037 8.77899 13.8531 8.80031 13.8004 8.80042C13.7475 8.80042 13.6963 8.77915 13.6588 8.74182C13.6214 8.70436 13.6003 8.65319 13.6002 8.60022C13.6002 8.54718 13.6213 8.49612 13.6588 8.45862C13.6963 8.42117 13.7474 8.40002 13.8004 8.40002ZM4.19983 5.99963C4.25278 5.99963 4.30394 6.02084 4.34143 6.05823C4.37889 6.09569 4.39997 6.14686 4.40002 6.19983C4.40002 6.25287 4.37894 6.30392 4.34143 6.34143C4.30392 6.37894 4.25287 6.40002 4.19983 6.40002C4.14686 6.39997 4.09569 6.37889 4.05823 6.34143C4.02084 6.30394 3.99963 6.25278 3.99963 6.19983C3.99969 6.14686 4.02077 6.09569 4.05823 6.05823C4.09569 6.02077 4.14686 5.99969 4.19983 5.99963ZM6.60022 5.99963C6.65319 5.99969 6.70436 6.02077 6.74182 6.05823C6.77928 6.09569 6.80036 6.14686 6.80042 6.19983C6.80042 6.25278 6.77921 6.30394 6.74182 6.34143C6.70436 6.37889 6.65319 6.39997 6.60022 6.40002C6.54718 6.40002 6.49613 6.37894 6.45862 6.34143C6.42111 6.30392 6.40002 6.25287 6.40002 6.19983C6.40008 6.14686 6.42116 6.09569 6.45862 6.05823C6.49611 6.02084 6.54727 5.99963 6.60022 5.99963ZM8.99963 5.99963C9.05254 5.99963 9.10376 6.0209 9.14124 6.05823C9.1787 6.09569 9.19978 6.14686 9.19983 6.19983C9.19983 6.25287 9.17874 6.30392 9.14124 6.34143C9.10374 6.37888 9.05263 6.40002 8.99963 6.40002C8.94682 6.39992 8.89641 6.37872 8.85901 6.34143C8.8215 6.30392 8.80042 6.25287 8.80042 6.19983C8.80047 6.14686 8.82155 6.09569 8.85901 6.05823C8.89639 6.02106 8.94692 5.99974 8.99963 5.99963ZM11.4 5.99963C11.453 5.99963 11.5041 6.02078 11.5416 6.05823C11.5791 6.09569 11.6002 6.14686 11.6002 6.19983C11.6002 6.25283 11.5791 6.30393 11.5416 6.34143C11.5041 6.37894 11.4531 6.40002 11.4 6.40002C11.347 6.40002 11.2959 6.37894 11.2584 6.34143C11.221 6.30393 11.1998 6.25283 11.1998 6.19983C11.1999 6.14686 11.221 6.09569 11.2584 6.05823C11.2866 6.0301 11.3225 6.01119 11.361 6.00354L11.4 5.99963ZM13.8004 5.99963C13.8531 5.99974 13.9037 6.02106 13.941 6.05823C13.9785 6.09569 13.9996 6.14686 13.9996 6.19983C13.9996 6.25287 13.9785 6.30392 13.941 6.34143C13.9036 6.37872 13.8532 6.39992 13.8004 6.40002C13.7474 6.40002 13.6963 6.37888 13.6588 6.34143C13.6213 6.30392 13.6002 6.25287 13.6002 6.19983C13.6003 6.14686 13.6214 6.09569 13.6588 6.05823C13.6963 6.0209 13.7475 5.99963 13.8004 5.99963Z" fill="black" stroke="#272829" stroke-width="1.2"/>
<path d="M1 7.8C1 5.5376 1 4.4056 1.7032 3.7032C2.4056 3 3.5376 3 5.8 3H12.2C14.4624 3 15.5944 3 16.2968 3.7032C17 4.4056 17 5.5376 17 7.8V9.4C17 11.6624 17 12.7944 16.2968 13.4968C15.5944 14.2 14.4624 14.2 12.2 14.2H5.8C3.5376 14.2 2.4056 14.2 1.7032 13.4968C1 12.7944 1 11.6624 1 9.4V7.8Z" stroke="#272829" stroke-width="1.2"/>
<path d="M5 11.8H13" stroke="#272829" stroke-width="1.2" stroke-linecap="round"/>
</svg>
