<svg width="18" height="18" viewBox="0 0 18 18" fill="none" xmlns="http://www.w3.org/2000/svg">
<path d="M5.66667 4.33333C5.66667 3.44928 6.01786 2.60143 6.64298 1.97631C7.2681 1.35119 8.11595 1 9 1C9.88406 1 10.7319 1.35119 11.357 1.97631C11.9821 2.60143 12.3333 3.44928 12.3333 4.33333V9C12.3333 9.88406 11.9821 10.7319 11.357 11.357C10.7319 11.9821 9.88406 12.3333 9 12.3333C8.11595 12.3333 7.2681 11.9821 6.64298 11.357C6.01786 10.7319 5.66667 9.88406 5.66667 9V4.33333ZM9 2.33333C8.46957 2.33333 7.96086 2.54405 7.58579 2.91912C7.21071 3.29419 7 3.8029 7 4.33333V9C7 9.53043 7.21071 10.0391 7.58579 10.4142C7.96086 10.7893 8.46957 11 9 11C9.53043 11 10.0391 10.7893 10.4142 10.4142C10.7893 10.0391 11 9.53043 11 9V4.33333C11 3.8029 10.7893 3.29419 10.4142 2.91912C10.0391 2.54405 9.53043 2.33333 9 2.33333ZM3.66667 8.33333C3.84348 8.33333 4.01305 8.40357 4.13807 8.5286C4.2631 8.65362 4.33333 8.82319 4.33333 9C4.33333 10.2377 4.825 11.4247 5.70017 12.2998C6.57534 13.175 7.76232 13.6667 9 13.6667C10.2377 13.6667 11.4247 13.175 12.2998 12.2998C13.175 11.4247 13.6667 10.2377 13.6667 9C13.6667 8.82319 13.7369 8.65362 13.8619 8.5286C13.987 8.40357 14.1565 8.33333 14.3333 8.33333C14.5101 8.33333 14.6797 8.40357 14.8047 8.5286C14.9298 8.65362 15 8.82319 15 9C15.0003 10.4761 14.4565 11.9004 13.4725 13.0007C12.4886 14.101 11.1336 14.8 9.66667 14.964V16.3333C9.66667 16.5101 9.59643 16.6797 9.47141 16.8047C9.34638 16.9298 9.17681 17 9 17C8.82319 17 8.65362 16.9298 8.5286 16.8047C8.40357 16.6797 8.33333 16.5101 8.33333 16.3333V14.964C6.86641 14.8 5.51142 14.101 4.52748 13.0007C3.54354 11.9004 2.99972 10.4761 3 9C3 8.82319 3.07024 8.65362 3.19526 8.5286C3.32029 8.40357 3.48986 8.33333 3.66667 8.33333Z" fill="#272829"/>
</svg>
