<svg width="18" height="18" viewBox="0 0 18 18" fill="none" xmlns="http://www.w3.org/2000/svg">
<g clip-path="url(#clip0_88_1109)">
<path d="M15.0001 2.25019V5.25019M16.5001 3.75019H13.5001M3.00008 12.7502V14.2502M3.75008 13.5002H2.25008M7.45283 11.6252C7.38587 11.3656 7.25058 11.1288 7.06104 10.9392C6.8715 10.7497 6.63463 10.6144 6.37508 10.5474L1.77383 9.36094C1.69533 9.33866 1.62623 9.29138 1.57704 9.22627C1.52784 9.16117 1.50122 9.08179 1.50122 9.00019C1.50122 8.91858 1.52784 8.83921 1.57704 8.7741C1.62623 8.709 1.69533 8.66172 1.77383 8.63944L6.37508 7.45219C6.63454 7.38529 6.87135 7.25012 7.06088 7.06072C7.25041 6.87132 7.38575 6.6346 7.45283 6.37519L8.63933 1.77394C8.66138 1.69513 8.70861 1.62569 8.77382 1.57623C8.83902 1.52677 8.91861 1.5 9.00045 1.5C9.08229 1.5 9.16188 1.52677 9.22709 1.57623C9.29229 1.62569 9.33952 1.69513 9.36158 1.77394L10.5473 6.37519C10.6143 6.63474 10.7496 6.87161 10.9391 7.06115C11.1287 7.25069 11.3655 7.38598 11.6251 7.45294L16.2263 8.63869C16.3055 8.66051 16.3752 8.70769 16.425 8.77299C16.4747 8.8383 16.5016 8.91811 16.5016 9.00019C16.5016 9.08227 16.4747 9.16208 16.425 9.22738C16.3752 9.29268 16.3055 9.33986 16.2263 9.36169L11.6251 10.5474C11.3655 10.6144 11.1287 10.7497 10.9391 10.9392C10.7496 11.1288 10.6143 11.3656 10.5473 11.6252L9.36083 16.2264C9.33877 16.3053 9.29154 16.3747 9.22634 16.4241C9.16113 16.4736 9.08154 16.5004 8.9997 16.5004C8.91786 16.5004 8.83827 16.4736 8.77307 16.4241C8.70787 16.3747 8.66063 16.3053 8.63858 16.2264L7.45283 11.6252Z" stroke="#272829" stroke-width="1.5" stroke-linecap="round" stroke-linejoin="round"/>
</g>
<defs>
<clipPath id="clip0_88_1109">
<rect width="18" height="18" fill="white"/>
</clipPath>
</defs>
</svg>
