<svg width="18" height="18" viewBox="0 0 18 18" fill="none" xmlns="http://www.w3.org/2000/svg">
<path d="M14.3113 11.8916C14.2313 11.834 14.1408 11.7927 14.0448 11.7701C13.9488 11.7475 13.8494 11.7441 13.7521 11.76C13.6548 11.7759 13.5616 11.8109 13.4778 11.8628C13.394 11.9148 13.3213 11.9827 13.2638 12.0628C13.2026 12.1486 13.139 12.232 13.0732 12.3128C12.6238 11.5601 11.9749 10.9464 11.1982 10.5397C11.5956 10.1116 11.8595 9.57675 11.9573 9.00084C12.0551 8.42494 11.9826 7.833 11.7488 7.29769C11.515 6.76237 11.1299 6.30697 10.641 5.98737C10.152 5.66777 9.58036 5.49787 8.99621 5.49854C8.41205 5.4992 7.8408 5.6704 7.35256 5.99111C6.86432 6.31183 6.48033 6.7681 6.24772 7.30395C6.01511 7.83979 5.94401 8.43189 6.04312 9.00758C6.14224 9.58326 6.40728 10.1175 6.8057 10.5447C6.03015 10.9509 5.38046 11.5614 4.92695 12.3103C4.29196 11.5318 3.89485 10.5868 3.7832 9.58843C3.93217 9.71568 4.12502 9.77959 4.3205 9.76648C4.51598 9.75337 4.69857 9.66429 4.82922 9.51829C4.95987 9.37229 5.0282 9.18097 5.0196 8.98523C5.011 8.7895 4.92615 8.60491 4.7832 8.47093L3.5332 7.22093C3.46352 7.15101 3.38073 7.09553 3.28956 7.05768C3.1984 7.01982 3.10066 7.00034 3.00195 7.00034C2.90324 7.00034 2.8055 7.01982 2.71433 7.05768C2.62317 7.09553 2.54038 7.15101 2.4707 7.22093L1.2207 8.47093C1.08457 8.6116 1.00883 8.79991 1.00965 8.99566C1.01047 9.19141 1.0878 9.37908 1.22511 9.5186C1.36242 9.65811 1.54884 9.73841 1.74455 9.74235C1.94026 9.74629 2.12976 9.67356 2.27257 9.53968C2.34357 10.4239 2.58836 11.2854 2.9929 12.0749C3.39744 12.8644 3.95379 13.5662 4.63007 14.1403C4.66588 14.1768 4.70524 14.2097 4.74757 14.2384C5.95301 15.2199 7.4607 15.7544 9.01516 15.7515C10.5696 15.7485 12.0753 15.2082 13.2769 14.2222C13.305 14.2018 13.3317 14.1797 13.3569 14.1559C13.7806 13.7984 14.1585 13.3899 14.4819 12.9397C14.5397 12.8597 14.5811 12.7691 14.6037 12.6731C14.6264 12.5771 14.6299 12.4776 14.6141 12.3802C14.5982 12.2829 14.5633 12.1896 14.5114 12.1057C14.4594 12.0219 14.3914 11.9491 14.3113 11.8916ZM8.99882 7.00031C9.2955 7.00031 9.5855 7.08828 9.83218 7.2531C10.0789 7.41792 10.2711 7.65219 10.3846 7.92628C10.4982 8.20037 10.5279 8.50197 10.47 8.79294C10.4121 9.08391 10.2693 9.35119 10.0595 9.56097C9.8497 9.77074 9.58243 9.91361 9.29146 9.97148C9.00049 10.0294 8.69889 9.99966 8.4248 9.88612C8.15071 9.77259 7.91644 9.58033 7.75162 9.33366C7.5868 9.08699 7.49882 8.79698 7.49882 8.50031C7.49882 8.10248 7.65686 7.72095 7.93816 7.43964C8.21947 7.15834 8.601 7.00031 8.99882 7.00031ZM8.99882 14.2503C7.95301 14.2516 6.93091 13.9387 6.06507 13.3522C6.32926 12.798 6.74502 12.3299 7.26423 12.0022C7.78344 11.6745 8.38485 11.5006 8.99882 11.5006C9.61279 11.5006 10.2142 11.6745 10.7334 12.0022C11.2526 12.3299 11.6684 12.798 11.9326 13.3522C11.0658 13.9368 10.0443 14.2495 8.99882 14.2503ZM16.7794 9.53093L15.5294 10.7809C15.4598 10.8509 15.377 10.9063 15.2858 10.9442C15.1946 10.982 15.0969 11.0015 14.9982 11.0015C14.8995 11.0015 14.8017 10.982 14.7106 10.9442C14.6194 10.9063 14.5366 10.8509 14.4669 10.7809L13.2169 9.53093C13.074 9.39695 12.9891 9.21236 12.9805 9.01663C12.9719 8.82089 13.0403 8.62957 13.1709 8.48357C13.3016 8.33757 13.4842 8.24849 13.6796 8.23538C13.8751 8.22227 14.068 8.28618 14.2169 8.41343C14.099 7.35833 13.664 6.36378 12.9692 5.561C12.2744 4.75823 11.3526 4.18495 10.3254 3.91682C9.29813 3.64868 8.21372 3.69829 7.21524 4.0591C6.21676 4.4199 5.35113 5.07495 4.73257 5.9378C4.67648 6.02108 4.60423 6.09224 4.52012 6.14707C4.436 6.2019 4.34174 6.23928 4.24291 6.257C4.14408 6.27472 4.0427 6.27242 3.94477 6.25022C3.84685 6.22803 3.75438 6.1864 3.67285 6.1278C3.59132 6.06921 3.52238 5.99483 3.47012 5.9091C3.41787 5.82336 3.38336 5.728 3.36865 5.62868C3.35393 5.52936 3.35931 5.4281 3.38446 5.33089C3.40962 5.23369 3.45403 5.14252 3.51507 5.0628C4.32148 3.93922 5.45357 3.09046 6.75817 2.63136C8.06276 2.17226 9.47689 2.12497 10.8092 2.4959C12.1416 2.86683 13.3278 3.63807 14.2075 4.70528C15.0872 5.77249 15.6178 7.08415 15.7276 8.46281C15.8704 8.32893 16.0599 8.2562 16.2556 8.26013C16.4513 8.26407 16.6377 8.34437 16.775 8.48389C16.9123 8.6234 16.9897 8.81107 16.9905 9.00682C16.9913 9.20257 16.9156 9.39089 16.7794 9.53156V9.53093Z" fill="black"/>
</svg>
