<svg width="24" height="24" viewBox="0 0 24 24" fill="none" xmlns="http://www.w3.org/2000/svg">
<path d="M2.71725 2.88935C2.64407 2.82061 2.55584 2.76547 2.4578 2.72723C2.35975 2.68899 2.25392 2.66842 2.1466 2.66677C2.03929 2.66511 1.93269 2.68239 1.83317 2.71758C1.73365 2.75277 1.64324 2.80515 1.56735 2.87159C1.49145 2.93803 1.43162 3.01717 1.39142 3.1043C1.35122 3.19142 1.33148 3.28474 1.33338 3.37868C1.33527 3.47263 1.35876 3.56528 1.40244 3.65111C1.44613 3.73694 1.50911 3.81418 1.58764 3.87824L6.08263 7.81513H3.75094C3.1152 7.81513 2.50549 8.03616 2.05585 8.4296C1.60622 8.82305 1.35347 9.35671 1.35319 9.91326V14.1086C1.35319 14.6653 1.60581 15.1992 2.05548 15.5928C2.50514 15.9865 3.11502 16.2076 3.75094 16.2076H7.67261C7.86833 16.2078 8.05717 16.2709 8.20331 16.3849L12.9892 20.1109C13.8482 20.7789 15.2069 20.2453 15.2069 19.2396V15.8009L21.3025 21.1371C21.4533 21.2645 21.6553 21.335 21.8648 21.3333C22.0744 21.3316 22.2748 21.2579 22.4229 21.1282C22.571 20.9984 22.655 20.8228 22.6567 20.6394C22.6584 20.4559 22.5778 20.2792 22.4321 20.1473L2.71725 2.88935ZM13.6084 14.4015V18.72L9.26578 15.3391C8.82693 14.9973 8.26001 14.8084 7.67261 14.8083H3.75094C3.53897 14.8083 3.33568 14.7345 3.18579 14.6033C3.0359 14.4721 2.95169 14.2941 2.95169 14.1086V9.91419C2.95169 9.72862 3.0359 9.55065 3.18579 9.41944C3.33568 9.28822 3.53897 9.2145 3.75094 9.2145H7.68113L13.6084 14.4015ZM13.6084 5.3028V10.4441L15.2069 11.8435V4.78316C15.2069 3.77655 13.8492 3.24386 12.9903 3.91182L9.36702 6.73109L10.4998 7.72278L13.6084 5.3028ZM17.4885 13.8408L18.7012 14.9025C19.2071 14.0038 19.47 13.0152 19.4696 12.0132C19.4701 10.9293 19.1625 9.86235 18.5744 8.90851C18.5244 8.82765 18.4568 8.7562 18.3753 8.69823C18.2938 8.64027 18.2 8.59692 18.0994 8.57067C17.9987 8.54443 17.8932 8.53579 17.7887 8.54525C17.6843 8.55472 17.583 8.5821 17.4906 8.62584C17.3983 8.66957 17.3166 8.72881 17.2504 8.80016C17.1842 8.87151 17.1347 8.95358 17.1047 9.04168C17.0747 9.12978 17.0649 9.22219 17.0757 9.31363C17.0865 9.40507 17.1178 9.49375 17.1677 9.57461C17.6153 10.2995 17.8711 11.1288 17.8711 12.0132C17.8711 12.6579 17.7357 13.2736 17.4885 13.8418M19.883 15.938L21.0478 16.9586C22.1083 15.4764 22.6694 13.7622 22.6666 12.0132C22.6695 10.0157 21.9371 8.07057 20.5779 6.46614C20.4491 6.32365 20.2621 6.2306 20.0563 6.20666C19.8506 6.18272 19.6423 6.22978 19.4755 6.33787C19.3087 6.44597 19.1965 6.60663 19.1625 6.78587C19.1286 6.96512 19.1757 7.14888 19.2937 7.2983C20.4491 8.66197 21.0713 10.3154 21.0681 12.0132C21.0705 13.3893 20.662 14.7419 19.883 15.9371" fill="#F8F9FB"/>
</svg>
