<svg width="18" height="18" viewBox="0 0 18 18" fill="none" xmlns="http://www.w3.org/2000/svg">
<path d="M2.0385 1.19079C1.98359 1.1319 1.91738 1.08466 1.84382 1.05189C1.77025 1.01913 1.69084 1.00151 1.61031 1.00009C1.52978 0.998673 1.4498 1.01348 1.37512 1.04363C1.30044 1.07378 1.23261 1.11865 1.17566 1.17557C1.11871 1.2325 1.07381 1.3003 1.04365 1.37494C1.01349 1.44958 0.998673 1.52953 1.00009 1.61002C1.00151 1.69051 1.01914 1.76989 1.05192 1.84342C1.0847 1.91695 1.13196 1.98313 1.19088 2.03801L5.8128 6.65774V9.00757C5.81274 9.58865 5.97112 10.1588 6.27092 10.6566C6.57072 11.1545 7.0006 11.5612 7.51436 11.8332C8.02811 12.1052 8.60631 12.232 9.18679 12.2002C9.76727 12.1683 10.3281 11.9789 10.809 11.6523L11.7253 12.5683C11 13.1117 10.1177 13.4048 9.21127 13.4035H8.81145L8.63873 13.4003C7.55608 13.3557 6.5326 12.8945 5.78236 12.113C5.03213 11.3316 4.61325 10.2904 4.61334 9.20738V8.80775L4.60774 8.72623C4.58703 8.57577 4.50995 8.43877 4.39208 8.34293C4.27421 8.24708 4.12433 8.19953 3.97273 8.20988C3.82114 8.22024 3.67912 8.28772 3.57539 8.3987C3.47165 8.50968 3.41393 8.65587 3.41388 8.80775V9.20738L3.41708 9.39601C3.46347 10.7244 3.99886 11.9889 4.92057 12.9471C5.84229 13.9052 7.08544 14.4896 8.41163 14.588V16.4007L8.41723 16.4823C8.43794 16.6327 8.51502 16.7697 8.63289 16.8656C8.75076 16.9614 8.90064 17.009 9.05224 16.9986C9.20384 16.9883 9.34585 16.9208 9.44959 16.8098C9.55332 16.6988 9.61104 16.5526 9.61109 16.4007L9.61189 14.588C10.6967 14.5097 11.732 14.1033 12.5802 13.4227L15.9834 16.8243C16.0965 16.9336 16.2479 16.9941 16.4052 16.9928C16.5624 16.9915 16.7129 16.9285 16.8241 16.8174C16.9354 16.7064 16.9985 16.556 17 16.3989C17.0014 16.2417 16.941 16.0902 16.8318 15.9771L2.0385 1.19079ZM9.93575 10.7795C9.63102 10.9384 9.29048 11.016 8.94699 11.0049C8.6035 10.9939 8.26866 10.8945 7.9748 10.7164C7.68094 10.5383 7.43798 10.2874 7.26937 9.98812C7.10077 9.68879 7.01222 9.35107 7.01226 9.00757V7.85663L9.93575 10.7795ZM11.0105 4.212V8.46247L12.1539 9.60542C12.1913 9.41146 12.2099 9.21218 12.2099 9.00757V4.212C12.2104 3.43666 11.9289 2.68756 11.418 2.10419C10.907 1.52082 10.2014 1.14292 9.4324 1.04086C8.66344 0.9388 7.88358 1.11953 7.23801 1.54939C6.59243 1.97926 6.12515 2.62898 5.92315 3.37757L7.01226 4.46616V4.212C7.01226 3.68206 7.22288 3.17382 7.59778 2.79909C7.97269 2.42436 8.48117 2.21384 9.01136 2.21384C9.54156 2.21384 10.05 2.42436 10.4249 2.79909C10.7998 3.17382 11.0105 3.68206 11.0105 4.212ZM13.1663 10.6173L14.0827 11.5332C14.4307 10.8073 14.6106 10.0123 14.6088 9.20738V8.80775L14.6032 8.72623C14.5825 8.57577 14.5055 8.43877 14.3876 8.34293C14.2697 8.24708 14.1198 8.19953 13.9682 8.20988C13.8166 8.22024 13.6746 8.28772 13.5709 8.3987C13.4672 8.50968 13.4094 8.65587 13.4094 8.80775V9.20738L13.4062 9.38002C13.3896 9.80223 13.3087 10.2194 13.1663 10.6173Z" fill="#272829"/>
</svg>
