<svg width="18" height="18" viewBox="0 0 18 18" fill="none" xmlns="http://www.w3.org/2000/svg">
<path d="M8.99956 14.6008C9.21174 14.6008 9.41524 14.685 9.56527 14.8351C9.71531 14.9851 9.7996 15.1886 9.7996 15.4008V16.2008C9.7996 16.413 9.71531 16.6165 9.56527 16.7666C9.41524 16.9166 9.21174 17.0009 8.99956 17.0009C8.78737 17.0009 8.58388 16.9166 8.43384 16.7666C8.2838 16.6165 8.19951 16.413 8.19951 16.2008V15.4008C8.19951 15.1886 8.2838 14.9851 8.43384 14.8351C8.58388 14.685 8.78737 14.6008 8.99956 14.6008ZM14.091 12.9607L14.6567 13.5263C14.8024 13.6772 14.883 13.8793 14.8812 14.089C14.8794 14.2988 14.7953 14.4995 14.6469 14.6478C14.4986 14.7961 14.2979 14.8803 14.0882 14.8821C13.8784 14.8839 13.6763 14.8033 13.5254 14.6576L12.9598 14.0919C12.814 13.941 12.7334 13.7389 12.7352 13.5292C12.737 13.3194 12.8212 13.1187 12.9695 12.9704C13.1179 12.8221 13.3185 12.7379 13.5283 12.7361C13.7381 12.7343 13.9401 12.8149 14.091 12.9607ZM3.90808 12.9607C4.05205 12.8172 4.24524 12.7339 4.44841 12.7277C4.65158 12.7215 4.8495 12.7928 5.00196 12.9273C5.15442 13.0617 5.24999 13.2491 5.26927 13.4515C5.28855 13.6538 5.23008 13.8559 5.10574 14.0167L5.03934 14.0919L4.47371 14.6576C4.32973 14.801 4.13654 14.8843 3.93337 14.8906C3.7302 14.8968 3.53228 14.8254 3.37982 14.691C3.22736 14.5565 3.13179 14.3691 3.11251 14.1667C3.09324 13.9644 3.1517 13.7623 3.27604 13.6015L3.34244 13.5263L3.90808 12.9607ZM8.99956 4.20018C10.2727 4.20018 11.4936 4.70592 12.3939 5.60614C13.2941 6.50637 13.7998 7.72733 13.7998 9.00044C13.7998 10.2736 13.2941 11.4945 12.3939 12.3947C11.4936 13.295 10.2727 13.8007 8.99956 13.8007C7.72645 13.8007 6.50548 13.295 5.60526 12.3947C4.70503 11.4945 4.19929 10.2736 4.19929 9.00044C4.19929 7.72733 4.70503 6.50637 5.60526 5.60614C6.50548 4.70592 7.72645 4.20018 8.99956 4.20018ZM2.5992 8.2004C2.80312 8.20063 2.99925 8.27871 3.14753 8.41869C3.2958 8.55867 3.38503 8.74999 3.39698 8.95356C3.40893 9.15712 3.3427 9.35757 3.21182 9.51394C3.08095 9.67031 2.8953 9.7708 2.69281 9.79489L2.5992 9.80049H1.79916C1.59524 9.80026 1.39911 9.72218 1.25083 9.5822C1.10256 9.44221 1.01333 9.25089 1.00138 9.04733C0.989426 8.84377 1.05566 8.64332 1.18654 8.48695C1.31742 8.33058 1.50306 8.23008 1.70555 8.206L1.79916 8.2004H2.5992ZM16.2 8.2004C16.4121 8.2004 16.6156 8.28469 16.7657 8.43473C16.9157 8.58476 17 8.78826 17 9.00044C17 9.21263 16.9157 9.41612 16.7657 9.56616C16.6156 9.7162 16.4121 9.80049 16.2 9.80049H15.3999C15.1877 9.80049 14.9842 9.7162 14.8342 9.56616C14.6842 9.41612 14.5999 9.21263 14.5999 9.00044C14.5999 8.78826 14.6842 8.58476 14.8342 8.43473C14.9842 8.28469 15.1877 8.2004 15.3999 8.2004H16.2ZM3.34244 3.34333C3.48021 3.20558 3.6635 3.12283 3.85793 3.11061C4.05236 3.09838 4.24457 3.15752 4.3985 3.27693L4.47371 3.34333L5.03934 3.90896C5.18282 4.05294 5.26613 4.24613 5.27233 4.4493C5.27854 4.65247 5.20717 4.85038 5.07274 5.00284C4.93831 5.15531 4.75088 5.25088 4.54853 5.27016C4.34618 5.28943 4.14408 5.23096 3.98328 5.10663L3.90808 5.04022L3.34244 4.47459C3.19246 4.32456 3.1082 4.1211 3.1082 3.90896C3.1082 3.69682 3.19246 3.49336 3.34244 3.34333ZM14.6567 3.34333C14.8067 3.49336 14.8909 3.69682 14.8909 3.90896C14.8909 4.1211 14.8067 4.32456 14.6567 4.47459L14.091 5.04022C14.0172 5.11664 13.929 5.17759 13.8313 5.21951C13.7337 5.26144 13.6288 5.28351 13.5225 5.28444C13.4163 5.28536 13.311 5.26512 13.2126 5.22489C13.1143 5.18466 13.025 5.12526 12.9499 5.05014C12.8747 4.97502 12.8153 4.8857 12.7751 4.78737C12.7349 4.68905 12.7146 4.5837 12.7156 4.47747C12.7165 4.37124 12.7386 4.26626 12.7805 4.16865C12.8224 4.07104 12.8834 3.98276 12.9598 3.90896L13.5254 3.34333C13.6754 3.19334 13.8789 3.10909 14.091 3.10909C14.3032 3.10909 14.5066 3.19334 14.6567 3.34333ZM8.99956 1C9.21174 1 9.41524 1.08429 9.56527 1.23433C9.71531 1.38436 9.7996 1.58786 9.7996 1.80004V2.60009C9.7996 2.81227 9.71531 3.01577 9.56527 3.16581C9.41524 3.31584 9.21174 3.40013 8.99956 3.40013C8.78737 3.40013 8.58388 3.31584 8.43384 3.16581C8.2838 3.01577 8.19951 2.81227 8.19951 2.60009V1.80004C8.19951 1.58786 8.2838 1.38436 8.43384 1.23433C8.58388 1.08429 8.78737 1 8.99956 1Z" fill="#FABA2E"/>
</svg>
