<svg width="24" height="24" viewBox="0 0 24 24" fill="none" xmlns="http://www.w3.org/2000/svg">
<path d="M15.1999 3.96615C15.1999 2.84612 13.841 2.25396 12.9812 2.9965L8.18871 7.13956C8.04244 7.26626 7.85342 7.33637 7.65752 7.3366H3.73325C3.0971 7.3366 2.48697 7.58215 2.03695 8.0193C1.58692 8.45645 1.33382 9.04942 1.33325 9.66791V14.3316C1.33325 14.9504 1.58611 15.5439 2.0362 15.9815C2.48628 16.4191 3.09673 16.665 3.73325 16.665H7.65858C7.85449 16.6652 8.0435 16.7353 8.18978 16.862L12.9802 21.003C13.8399 21.7466 15.1999 21.1534 15.1999 20.0344V3.96615ZM9.25325 8.30107L13.5999 4.54276V19.4578L9.25325 15.7005C8.81398 15.3205 8.24654 15.1106 7.65858 15.1104H3.73325C3.52108 15.1104 3.31759 15.0285 3.16757 14.8826C3.01754 14.7367 2.93325 14.5389 2.93325 14.3326V9.66791C2.93325 9.46163 3.01754 9.26379 3.16757 9.11793C3.31759 8.97206 3.52108 8.89012 3.73325 8.89012H7.65858C8.2464 8.89026 8.81382 8.68066 9.25325 8.30107ZM19.458 5.67419C19.6285 5.5514 19.8421 5.49947 20.052 5.52981C20.2618 5.56015 20.4506 5.67028 20.577 5.83597C21.9373 7.61992 22.6701 9.78263 22.6666 12.0034C22.6698 14.2242 21.9366 16.387 20.5759 18.1708C20.5141 18.2546 20.4357 18.3256 20.3453 18.3796C20.255 18.4337 20.1545 18.4698 20.0497 18.4857C19.9449 18.5017 19.8378 18.4972 19.7348 18.4726C19.6318 18.4479 19.5349 18.4036 19.4496 18.3422C19.3644 18.2808 19.2926 18.2035 19.2384 18.1148C19.1841 18.0262 19.1486 17.9279 19.1338 17.8258C19.119 17.7237 19.1252 17.6197 19.1521 17.5199C19.1791 17.4202 19.2261 17.3266 19.2906 17.2447C20.447 15.7288 21.0698 13.8907 21.0666 12.0034C21.0696 10.1164 20.4468 8.27872 19.2906 6.7631C19.2279 6.68095 19.1826 6.58759 19.1571 6.48837C19.1316 6.38915 19.1265 6.28602 19.142 6.18488C19.1576 6.08374 19.1935 5.98657 19.2477 5.89894C19.302 5.81131 19.3734 5.73493 19.458 5.67419ZM17.4858 8.23781C17.5782 8.1891 17.6795 8.15856 17.784 8.14793C17.8885 8.13731 17.9942 8.14682 18.0949 8.1759C18.1957 8.20498 18.2895 8.25308 18.3711 8.31744C18.4527 8.3818 18.5205 8.46116 18.5706 8.551C19.1423 9.57872 19.4666 10.7548 19.4666 12.0034C19.4671 13.2083 19.1592 14.3944 18.5706 15.4547C18.5206 15.5446 18.4528 15.624 18.3713 15.6885C18.2897 15.7529 18.1958 15.8011 18.0951 15.8303C17.9944 15.8594 17.8887 15.869 17.7842 15.8585C17.6796 15.848 17.5782 15.8176 17.4858 15.7689C17.3933 15.7203 17.3116 15.6545 17.2454 15.5752C17.1791 15.4958 17.1295 15.4046 17.0995 15.3067C17.0695 15.2087 17.0596 15.106 17.0704 15.0044C17.0813 14.9027 17.1126 14.8041 17.1626 14.7143C17.6106 13.9085 17.8666 12.9855 17.8666 12.0023C17.8669 11.0559 17.6249 10.1243 17.1626 9.29146C17.0618 9.11005 17.0393 8.89716 17.0999 8.69959C17.1605 8.50202 17.2993 8.33592 17.4858 8.23781Z" fill="#F8F9FB"/>
</svg>
