<svg width="18" height="18" viewBox="0 0 18 18" fill="none" xmlns="http://www.w3.org/2000/svg">
<path d="M8.99996 11.3334C10.2886 11.3334 11.3333 10.2887 11.3333 9.00002C11.3333 7.71136 10.2886 6.66669 8.99996 6.66669C7.71129 6.66669 6.66663 7.71136 6.66663 9.00002C6.66663 10.2887 7.71129 11.3334 8.99996 11.3334Z" stroke="#272829" stroke-width="1.5" stroke-linecap="round" stroke-linejoin="round"/>
<path d="M2 5.11111V3.55556C2 3.143 2.16389 2.74733 2.45561 2.45561C2.74733 2.16389 3.143 2 3.55556 2H5.11111M12.8889 2H14.4444C14.857 2 15.2527 2.16389 15.5444 2.45561C15.8361 2.74733 16 3.143 16 3.55556V5.11111M16 12.8889V14.4444C16 14.857 15.8361 15.2527 15.5444 15.5444C15.2527 15.8361 14.857 16 14.4444 16H12.8889M5.11111 16H3.55556C3.143 16 2.74733 15.8361 2.45561 15.5444C2.16389 15.2527 2 14.857 2 14.4444V12.8889" stroke="#272829" stroke-width="1.5" stroke-linecap="round" stroke-linejoin="round"/>
</svg>
