<svg width="18" height="18" viewBox="0 0 18 18" fill="none" xmlns="http://www.w3.org/2000/svg">
<path d="M9 2.5C10.4587 2.5 11.8572 3.07988 12.8887 4.11133C13.9201 5.14278 14.5 6.54131 14.5 8C14.5 10.2438 13.1088 12.3747 11.6309 13.9912C10.9009 14.7896 10.1696 15.4414 9.62012 15.8936C9.3688 16.1004 9.15567 16.2639 9 16.3809C8.84433 16.2639 8.6312 16.1004 8.37988 15.8936C7.83044 15.4414 7.09909 14.7896 6.36914 13.9912C4.89118 12.3747 3.5 10.2438 3.5 8C3.5 6.54131 4.07988 5.14278 5.11133 4.11133C6.14278 3.07988 7.54131 2.5 9 2.5ZM9 5.25C8.27065 5.25 7.57139 5.53994 7.05566 6.05566C6.53994 6.57139 6.25 7.27066 6.25 8C6.25 8.72934 6.53994 9.42861 7.05566 9.94434C7.57139 10.4601 8.27065 10.75 9 10.75C9.72935 10.75 10.4286 10.4601 10.9443 9.94434C11.4601 9.42861 11.75 8.72935 11.75 8C11.75 7.27065 11.4601 6.57139 10.9443 6.05566C10.4286 5.53994 9.72935 5.25 9 5.25Z" stroke="#272829"/>
<path d="M15 8C15 12.875 9 17 9 17C9 17 3 12.875 3 8C3 6.4087 3.63214 4.88258 4.75736 3.75736C5.88258 2.63214 7.4087 2 9 2C10.5913 2 12.1174 2.63214 13.2426 3.75736C14.3679 4.88258 15 6.4087 15 8Z" stroke="#272829"/>
<path d="M11.25 8C11.25 8.59674 11.0129 9.16903 10.591 9.59099C10.169 10.0129 9.59674 10.25 9 10.25C8.40326 10.25 7.83097 10.0129 7.40901 9.59099C6.98705 9.16903 6.75 8.59674 6.75 8C6.75 7.40326 6.98705 6.83097 7.40901 6.40901C7.83097 5.98705 8.40326 5.75 9 5.75C9.59674 5.75 10.169 5.98705 10.591 6.40901C11.0129 6.83097 11.25 7.40326 11.25 8Z" stroke="#272829"/>
</svg>
