<svg width="18" height="18" viewBox="0 0 18 18" fill="none" xmlns="http://www.w3.org/2000/svg">
<path d="M2.038 2.16702C1.98312 2.11546 1.91694 2.07411 1.84341 2.04543C1.76988 2.01675 1.6905 2.00132 1.61001 2.00008C1.52953 1.99884 1.44958 2.0118 1.37494 2.03819C1.3003 2.06459 1.23249 2.10387 1.17557 2.1537C1.11865 2.20353 1.07378 2.26289 1.04363 2.32823C1.01348 2.39357 0.998673 2.46356 1.00009 2.53402C1.00151 2.60448 1.01913 2.67397 1.05189 2.73834C1.08466 2.80271 1.13189 2.86064 1.19079 2.90869L4.56203 5.86136H2.81327C2.33646 5.86136 1.87918 6.02712 1.54195 6.32221C1.20472 6.6173 1.01516 7.01754 1.01495 7.43495V10.5814C1.01495 10.999 1.20442 11.3994 1.54167 11.6946C1.87892 11.9899 2.33633 12.1557 2.81327 12.1557H5.75452C5.90131 12.1559 6.04294 12.2032 6.15254 12.2887L9.74198 15.0832C10.3862 15.5842 11.4052 15.184 11.4052 14.4297V11.8507L15.9769 15.8529C16.0901 15.9484 16.2415 16.0012 16.3987 16C16.5558 15.9987 16.7062 15.9435 16.8173 15.8461C16.9283 15.7488 16.9913 15.6171 16.9926 15.4795C16.9939 15.342 16.9334 15.2094 16.8242 15.1105L2.038 2.16702ZM10.2064 10.8011V14.04L6.9494 11.5043C6.62026 11.248 6.19507 11.1063 5.75452 11.1062H2.81327C2.65429 11.1062 2.50182 11.0509 2.3894 10.9525C2.27699 10.8541 2.21383 10.7206 2.21383 10.5814V7.43565C2.21383 7.29647 2.27699 7.163 2.3894 7.06459C2.50182 6.96617 2.65429 6.91089 2.81327 6.91089H5.76091L10.2064 10.8011ZM10.2064 3.97711V7.83307L11.4052 8.8826V3.58738C11.4052 2.83242 10.387 2.4329 9.74278 2.93388L7.02533 5.04832L7.87493 5.79209L10.2064 3.97711ZM13.1164 10.3806L14.026 11.1769C14.4054 10.5028 14.6026 9.76138 14.6022 9.00994C14.6027 8.19701 14.3719 7.39677 13.9309 6.68139C13.8934 6.62075 13.8426 6.56716 13.7815 6.52368C13.7204 6.48021 13.6501 6.4477 13.5746 6.42801C13.4991 6.40833 13.42 6.40185 13.3416 6.40895C13.2633 6.41604 13.1873 6.43658 13.118 6.46938C13.0488 6.50219 12.9875 6.54661 12.9379 6.60013C12.8882 6.65364 12.8511 6.71519 12.8286 6.78127C12.8061 6.84734 12.7987 6.91665 12.8068 6.98523C12.8149 7.05381 12.8384 7.12032 12.8759 7.18096C13.2115 7.72462 13.4034 8.34664 13.4034 9.00994C13.4034 9.49342 13.3019 9.95522 13.1164 10.3813M14.9123 11.9535L15.7859 12.719C16.5813 11.6073 17.0021 10.3217 17 9.00994C17.0022 7.51181 16.4529 6.05293 15.4335 4.84961C15.3369 4.74275 15.1966 4.67295 15.0423 4.655C14.888 4.63705 14.7318 4.67234 14.6067 4.75341C14.4816 4.83449 14.3974 4.95498 14.372 5.08941C14.3465 5.22384 14.3818 5.36167 14.4704 5.47373C15.3369 6.49648 15.8036 7.73658 15.8011 9.00994C15.803 10.042 15.4966 11.0565 14.9123 11.9528" fill="#272829"/>
</svg>
