<svg width="18" height="18" viewBox="0 0 18 18" fill="none" xmlns="http://www.w3.org/2000/svg">
<mask id="path-1-inside-1_197_705" fill="white">
<path d="M1.61538 3.61538V3C1.45217 3 1.29565 3.06483 1.18024 3.18024C1.06483 3.29565 1 3.45217 1 3.61538H1.61538ZM16.3846 3.61538H17C17 3.45217 16.9352 3.29565 16.8198 3.18024C16.7044 3.06483 16.5478 3 16.3846 3V3.61538ZM1.61538 4.23077H16.3846V3H1.61538V4.23077ZM15.7692 3.61538V13.4615H17V3.61538H15.7692ZM14.7436 14.4872H3.25641V15.7179H14.7436V14.4872ZM2.23077 13.4615V3.61538H1V13.4615H2.23077ZM3.25641 14.4872C2.69026 14.4872 2.23077 14.0277 2.23077 13.4615H1C1 14.06 1.23773 14.6339 1.66089 15.0571C2.08405 15.4802 2.65797 15.7179 3.25641 15.7179V14.4872ZM15.7692 13.4615C15.7692 14.0277 15.3097 14.4872 14.7436 14.4872V15.7179C15.342 15.7179 15.916 15.4802 16.3391 15.0571C16.7623 14.6339 17 14.06 17 13.4615H15.7692Z"/>
</mask>
<path d="M1.61538 3.61538V3C1.45217 3 1.29565 3.06483 1.18024 3.18024C1.06483 3.29565 1 3.45217 1 3.61538H1.61538ZM16.3846 3.61538H17C17 3.45217 16.9352 3.29565 16.8198 3.18024C16.7044 3.06483 16.5478 3 16.3846 3V3.61538ZM1.61538 4.23077H16.3846V3H1.61538V4.23077ZM15.7692 3.61538V13.4615H17V3.61538H15.7692ZM14.7436 14.4872H3.25641V15.7179H14.7436V14.4872ZM2.23077 13.4615V3.61538H1V13.4615H2.23077ZM3.25641 14.4872C2.69026 14.4872 2.23077 14.0277 2.23077 13.4615H1C1 14.06 1.23773 14.6339 1.66089 15.0571C2.08405 15.4802 2.65797 15.7179 3.25641 15.7179V14.4872ZM15.7692 13.4615C15.7692 14.0277 15.3097 14.4872 14.7436 14.4872V15.7179C15.342 15.7179 15.916 15.4802 16.3391 15.0571C16.7623 14.6339 17 14.06 17 13.4615H15.7692Z" fill="black"/>
<path d="M15.7692 13.4615V14.1115H17V13.4615V12.8115H15.7692V13.4615ZM3.25641 14.4872H2.60641V15.7179H3.25641H3.90641V14.4872H3.25641ZM14.7436 15.7179H15.3936V14.4872H14.7436H14.0936V15.7179H14.7436ZM1 13.4615V14.1115H2.23077V13.4615V12.8115H1V13.4615ZM1.61538 3.61538V4.91538H2.91538V3.61538H1.61538ZM1.61538 3V1.7V3ZM16.3846 3.61538H15.0846V4.91538H16.3846V3.61538ZM16.3846 3V1.7V3ZM1.61538 4.23077H0.315385V5.53077H1.61538V4.23077ZM16.3846 4.23077V5.53077H17.6846V4.23077H16.3846ZM15.7692 3.61538V2.31538H14.4692V3.61538H15.7692ZM2.23077 3.61538H3.53077V2.31538H2.23077V3.61538ZM1 13.4615H-0.3H1ZM1.61538 3.61538H2.91538V3H1.61538H0.315385V3.61538H1.61538ZM1.61538 3V1.7C1.10739 1.7 0.620208 1.9018 0.261003 2.261L1.18024 3.18024L2.09948 4.09948C1.97109 4.22787 1.79696 4.3 1.61538 4.3V3ZM1.18024 3.18024L0.261003 2.261C-0.0982016 2.62021 -0.3 3.10739 -0.3 3.61538H1H2.3C2.3 3.79696 2.22787 3.97109 2.09948 4.09948L1.18024 3.18024ZM1 3.61538V4.91538H1.61538V3.61538V2.31538H1V3.61538ZM16.3846 3.61538V4.91538H17V3.61538V2.31538H16.3846V3.61538ZM17 3.61538H18.3C18.3 3.1074 18.0982 2.62021 17.739 2.261L16.8198 3.18024L15.9005 4.09948C15.7721 3.97109 15.7 3.79695 15.7 3.61538H17ZM16.8198 3.18024L17.739 2.261C17.3798 1.9018 16.8926 1.7 16.3846 1.7V3V4.3C16.203 4.3 16.0289 4.22787 15.9005 4.09948L16.8198 3.18024ZM16.3846 3H15.0846V3.61538H16.3846H17.6846V3H16.3846ZM1.61538 4.23077V5.53077H16.3846V4.23077V2.93077H1.61538V4.23077ZM16.3846 4.23077H17.6846V3H16.3846H15.0846V4.23077H16.3846ZM16.3846 3V1.7H1.61538V3V4.3H16.3846V3ZM1.61538 3H0.315385V4.23077H1.61538H2.91538V3H1.61538ZM15.7692 3.61538H14.4692V13.4615H15.7692H17.0692V3.61538H15.7692ZM17 13.4615H18.3V3.61538H17H15.7V13.4615H17ZM17 3.61538V2.31538H15.7692V3.61538V4.91538H17V3.61538ZM14.7436 14.4872V13.1872H3.25641V14.4872V15.7872H14.7436V14.4872ZM3.25641 15.7179V17.0179H14.7436V15.7179V14.4179H3.25641V15.7179ZM2.23077 13.4615H3.53077V3.61538H2.23077H0.930769V13.4615H2.23077ZM2.23077 3.61538V2.31538H1V3.61538V4.91538H2.23077V3.61538ZM1 3.61538H-0.3V13.4615H1H2.3V3.61538H1ZM3.25641 14.4872V13.1872C3.40823 13.1872 3.53077 13.3097 3.53077 13.4615H2.23077H0.930769C0.930769 14.7457 1.97229 15.7872 3.25641 15.7872V14.4872ZM1 13.4615H-0.3C-0.3 14.4048 0.0746922 15.3093 0.741649 15.9763L1.66089 15.0571L2.58013 14.1378C2.40076 13.9585 2.3 13.7152 2.3 13.4615H1ZM1.66089 15.0571L0.741649 15.9763C1.4086 16.6433 2.31319 17.0179 3.25641 17.0179V15.7179V14.4179C3.00275 14.4179 2.75949 14.3172 2.58013 14.1378L1.66089 15.0571ZM15.7692 13.4615H14.4692C14.4692 13.3097 14.5918 13.1872 14.7436 13.1872V14.4872V15.7872C16.0277 15.7872 17.0692 14.7457 17.0692 13.4615H15.7692ZM14.7436 15.7179V17.0179C15.6868 17.0179 16.5914 16.6433 17.2584 15.9763L16.3391 15.0571L15.4199 14.1378C15.2405 14.3172 14.9972 14.4179 14.7436 14.4179V15.7179ZM16.3391 15.0571L17.2584 15.9763C17.9253 15.3093 18.3 14.4048 18.3 13.4615H17H15.7C15.7 13.7152 15.5992 13.9585 15.4199 14.1378L16.3391 15.0571Z" fill="#272829" mask="url(#path-1-inside-1_197_705)"/>
<path d="M1.61536 3.61536L8.99997 11L16.3846 3.61536" stroke="#272829" stroke-width="1.3" stroke-linecap="round" stroke-linejoin="round"/>
</svg>
