<svg width="18" height="18" viewBox="0 0 18 18" fill="none" xmlns="http://www.w3.org/2000/svg">
<path d="M9.39533 16.5054L9.38799 16.5067L9.34066 16.53L9.32733 16.5327L9.31799 16.53L9.27066 16.5067C9.26355 16.5045 9.25821 16.5056 9.25466 16.51L9.25199 16.5167L9.24066 16.802L9.24399 16.8154L9.25066 16.824L9.31999 16.8734L9.32999 16.876L9.33799 16.8734L9.40733 16.824L9.41533 16.8134L9.41799 16.802L9.40666 16.5174C9.40488 16.5103 9.4011 16.5063 9.39533 16.5054ZM9.57199 16.43L9.56333 16.4314L9.43999 16.4934L9.43333 16.5L9.43133 16.5074L9.44333 16.794L9.44666 16.802L9.45199 16.8067L9.58599 16.8687C9.59444 16.8709 9.60088 16.8692 9.60533 16.8634L9.60799 16.854L9.58533 16.4447C9.5831 16.4367 9.57866 16.4318 9.57199 16.43ZM9.09533 16.4314C9.09239 16.4296 9.08888 16.429 9.08552 16.4298C9.08217 16.4305 9.07923 16.4325 9.07733 16.4354L9.07333 16.4447L9.05066 16.854C9.0511 16.862 9.05488 16.8674 9.06199 16.87L9.07199 16.8687L9.20599 16.8067L9.21266 16.8014L9.21533 16.794L9.22666 16.5074L9.22466 16.4994L9.21799 16.4927L9.09533 16.4314Z" fill="#454547"/>
<path d="M11.5094 3.66669C11.8807 3.6667 12.2448 3.77011 12.5607 3.96533C12.8766 4.16056 13.1319 4.43988 13.298 4.77202L14.22 6.61535C14.3827 6.54869 14.5447 6.48135 14.702 6.40335C14.8603 6.32432 15.0435 6.31138 15.2112 6.3674C15.379 6.42341 15.5177 6.54377 15.5967 6.70202C15.6757 6.86027 15.6887 7.04343 15.6327 7.21121C15.5767 7.37899 15.4563 7.51765 15.298 7.59669C14.9687 7.76069 14.818 7.81135 14.818 7.81135L15.4554 9.08669C15.5947 9.36469 15.6667 9.67069 15.6667 9.98135V11.6667C15.6667 11.9481 15.6073 12.2263 15.4924 12.4832C15.3776 12.74 15.2098 12.9698 15 13.1574V14C15 14.2652 14.8947 14.5196 14.7072 14.7071C14.5196 14.8947 14.2653 15 14 15C13.7348 15 13.4805 14.8947 13.2929 14.7071C13.1054 14.5196 13 14.2652 13 14V13.6667H5.00005V14C5.00005 14.2652 4.89469 14.5196 4.70716 14.7071C4.51962 14.8947 4.26526 15 4.00005 15C3.73483 15 3.48048 14.8947 3.29294 14.7071C3.10541 14.5196 3.00005 14.2652 3.00005 14V13.1574C2.59072 12.7907 2.33338 12.2587 2.33338 11.6667V9.98135C2.33351 9.67099 2.40586 9.36492 2.54472 9.08735L3.18205 7.81135C3.02052 7.74452 2.8609 7.67316 2.70338 7.59735C2.6248 7.55837 2.55469 7.50426 2.49706 7.43812C2.43943 7.37199 2.39542 7.29513 2.36755 7.21195C2.33968 7.12878 2.3285 7.04092 2.33465 6.95342C2.3408 6.86591 2.36415 6.78048 2.40338 6.70202C2.48403 6.54447 2.62347 6.42501 2.79153 6.36949C2.95959 6.31397 3.14275 6.32685 3.30138 6.40535C3.45872 6.48091 3.61827 6.55091 3.78005 6.61535L4.70205 4.77202C4.86817 4.43988 5.12349 4.16056 5.43941 3.96533C5.75532 3.77011 6.11935 3.6667 6.49072 3.66669H11.5094ZM13.556 8.26935C12.4227 8.62735 10.81 9.00002 9.00005 9.00002C7.19005 9.00002 5.57738 8.62669 4.44405 8.26935L3.73738 9.68269C3.69092 9.77539 3.66672 9.87766 3.66672 9.98135V11.6667C3.66672 11.8435 3.73695 12.0131 3.86198 12.1381C3.987 12.2631 4.15657 12.3334 4.33338 12.3334H13.6667C13.8435 12.3334 14.0131 12.2631 14.1381 12.1381C14.2631 12.0131 14.3334 11.8435 14.3334 11.6667V9.98135C14.3333 9.87788 14.3091 9.77586 14.2627 9.68335L13.556 8.26935ZM6.00005 9.66669C6.26526 9.66669 6.51962 9.77204 6.70716 9.95958C6.89469 10.1471 7.00005 10.4015 7.00005 10.6667C7.00005 10.9319 6.89469 11.1863 6.70716 11.3738C6.51962 11.5613 6.26526 11.6667 6.00005 11.6667C5.73483 11.6667 5.48048 11.5613 5.29294 11.3738C5.10541 11.1863 5.00005 10.9319 5.00005 10.6667C5.00005 10.4015 5.10541 10.1471 5.29294 9.95958C5.48048 9.77204 5.73483 9.66669 6.00005 9.66669ZM12 9.66669C12.2653 9.66669 12.5196 9.77204 12.7072 9.95958C12.8947 10.1471 13 10.4015 13 10.6667C13 10.9319 12.8947 11.1863 12.7072 11.3738C12.5196 11.5613 12.2653 11.6667 12 11.6667C11.7348 11.6667 11.4805 11.5613 11.2929 11.3738C11.1054 11.1863 11 10.9319 11 10.6667C11 10.4015 11.1054 10.1471 11.2929 9.95958C11.4805 9.77204 11.7348 9.66669 12 9.66669ZM11.5094 5.00002H6.49072C6.36694 5.00009 6.24563 5.03461 6.14036 5.09972C6.0351 5.16483 5.95004 5.25797 5.89472 5.36869L5.04805 7.06002C6.08005 7.37002 7.47072 7.66669 9.00005 7.66669C10.5294 7.66669 11.92 7.37002 12.9514 7.06002L12.1054 5.36869C12.0501 5.25797 11.965 5.16483 11.8597 5.09972C11.7545 5.03461 11.6332 5.00009 11.5094 5.00002Z" fill="#454547"/>
</svg>
