<svg width="18" height="18" viewBox="0 0 18 18" fill="none" xmlns="http://www.w3.org/2000/svg">
<path d="M9.00037 5.71796V8.99993L11.0516 11.0512" stroke="#272829" stroke-width="1.5" stroke-linecap="round" stroke-linejoin="round"/>
<mask id="path-2-inside-1_222_867" fill="white">
<path d="M2.71368 4.79161L2.0983 4.79407C2.09895 4.95628 2.16362 5.11168 2.27825 5.22646C2.39287 5.34124 2.54818 5.40611 2.7104 5.40698L2.71368 4.79161ZM4.79938 5.41682C4.8802 5.4172 4.96029 5.40166 5.0351 5.37108C5.1099 5.3405 5.17795 5.29549 5.23536 5.23862C5.29277 5.18174 5.33842 5.11411 5.36969 5.0396C5.40096 4.96508 5.41725 4.88514 5.41763 4.80432C5.41801 4.72351 5.40246 4.64342 5.37189 4.56861C5.34131 4.49381 5.2963 4.42576 5.23942 4.36835C5.18255 4.31094 5.11492 4.2653 5.0404 4.23402C4.96589 4.20275 4.88594 4.18646 4.80513 4.18608L4.79938 5.41682ZM3.31838 2.69935C3.31795 2.61854 3.30161 2.5386 3.27029 2.46411C3.23896 2.38961 3.19327 2.32202 3.13583 2.26518C3.07838 2.20834 3.0103 2.16338 2.93547 2.13285C2.86065 2.10232 2.78054 2.08683 2.69973 2.08726C2.61892 2.08769 2.53898 2.10404 2.46448 2.13536C2.38999 2.16668 2.32239 2.21237 2.26555 2.26982C2.20872 2.32727 2.16375 2.39535 2.13322 2.47017C2.1027 2.545 2.08721 2.6251 2.08764 2.70591L3.31838 2.69935ZM2.2944 8.00302C2.30619 7.92259 2.30193 7.84063 2.28187 7.76186C2.2618 7.68309 2.22633 7.60907 2.1775 7.54409C2.12867 7.47911 2.06745 7.42444 1.99738 7.38325C1.9273 7.34206 1.84976 7.31516 1.76923 7.3041C1.6887 7.29305 1.60678 7.29805 1.52819 7.31884C1.44961 7.33962 1.37592 7.37577 1.31139 7.42519C1.24685 7.47461 1.19275 7.53633 1.1522 7.60678C1.11165 7.67723 1.08546 7.75501 1.07514 7.83564L2.2944 8.00302ZM14.6306 3.36969C11.4963 0.23541 6.43136 0.20259 3.31756 3.31718L4.18729 4.1869C6.81289 1.56215 11.0984 1.57774 13.7609 4.23942L14.6306 3.36969ZM3.37008 14.6301C6.50438 17.7644 11.5693 17.7972 14.6831 14.6826L13.8134 13.8129C11.1878 16.4377 6.90232 16.4221 4.2398 13.7604L3.37008 14.6301ZM14.6831 14.6826C17.7969 11.5689 17.7649 6.50398 14.6306 3.36969L13.7609 4.23942C16.4226 6.90191 16.4382 11.1873 13.8134 13.8129L14.6831 14.6826ZM3.31756 3.31718L2.27799 4.35593L3.14854 5.22565L4.18729 4.1869L3.31756 3.31718ZM2.7104 5.40698L4.79938 5.41682L4.80513 4.18608L2.71696 4.17624L2.7104 5.40698ZM3.32905 4.78833L3.31838 2.69935L2.08764 2.70591L2.0983 4.79407L3.32905 4.78833ZM1.07432 7.83482C0.905613 9.06768 1.02505 10.3229 1.42324 11.5018C1.82144 12.6807 2.48755 13.7512 3.36926 14.6293L4.23898 13.7596C3.49159 13.0157 2.92692 12.1086 2.58936 11.1096C2.2518 10.1106 2.15056 9.04694 2.29358 8.0022L1.07432 7.83482Z"/>
</mask>
<path d="M2.71368 4.79161L2.0983 4.79407C2.09895 4.95628 2.16362 5.11168 2.27825 5.22646C2.39287 5.34124 2.54818 5.40611 2.7104 5.40698L2.71368 4.79161ZM4.79938 5.41682C4.8802 5.4172 4.96029 5.40166 5.0351 5.37108C5.1099 5.3405 5.17795 5.29549 5.23536 5.23862C5.29277 5.18174 5.33842 5.11411 5.36969 5.0396C5.40096 4.96508 5.41725 4.88514 5.41763 4.80432C5.41801 4.72351 5.40246 4.64342 5.37189 4.56861C5.34131 4.49381 5.2963 4.42576 5.23942 4.36835C5.18255 4.31094 5.11492 4.2653 5.0404 4.23402C4.96589 4.20275 4.88594 4.18646 4.80513 4.18608L4.79938 5.41682ZM3.31838 2.69935C3.31795 2.61854 3.30161 2.5386 3.27029 2.46411C3.23896 2.38961 3.19327 2.32202 3.13583 2.26518C3.07838 2.20834 3.0103 2.16338 2.93547 2.13285C2.86065 2.10232 2.78054 2.08683 2.69973 2.08726C2.61892 2.08769 2.53898 2.10404 2.46448 2.13536C2.38999 2.16668 2.32239 2.21237 2.26555 2.26982C2.20872 2.32727 2.16375 2.39535 2.13322 2.47017C2.1027 2.545 2.08721 2.6251 2.08764 2.70591L3.31838 2.69935ZM2.2944 8.00302C2.30619 7.92259 2.30193 7.84063 2.28187 7.76186C2.2618 7.68309 2.22633 7.60907 2.1775 7.54409C2.12867 7.47911 2.06745 7.42444 1.99738 7.38325C1.9273 7.34206 1.84976 7.31516 1.76923 7.3041C1.6887 7.29305 1.60678 7.29805 1.52819 7.31884C1.44961 7.33962 1.37592 7.37577 1.31139 7.42519C1.24685 7.47461 1.19275 7.53633 1.1522 7.60678C1.11165 7.67723 1.08546 7.75501 1.07514 7.83564L2.2944 8.00302ZM14.6306 3.36969C11.4963 0.23541 6.43136 0.20259 3.31756 3.31718L4.18729 4.1869C6.81289 1.56215 11.0984 1.57774 13.7609 4.23942L14.6306 3.36969ZM3.37008 14.6301C6.50438 17.7644 11.5693 17.7972 14.6831 14.6826L13.8134 13.8129C11.1878 16.4377 6.90232 16.4221 4.2398 13.7604L3.37008 14.6301ZM14.6831 14.6826C17.7969 11.5689 17.7649 6.50398 14.6306 3.36969L13.7609 4.23942C16.4226 6.90191 16.4382 11.1873 13.8134 13.8129L14.6831 14.6826ZM3.31756 3.31718L2.27799 4.35593L3.14854 5.22565L4.18729 4.1869L3.31756 3.31718ZM2.7104 5.40698L4.79938 5.41682L4.80513 4.18608L2.71696 4.17624L2.7104 5.40698ZM3.32905 4.78833L3.31838 2.69935L2.08764 2.70591L2.0983 4.79407L3.32905 4.78833ZM1.07432 7.83482C0.905613 9.06768 1.02505 10.3229 1.42324 11.5018C1.82144 12.6807 2.48755 13.7512 3.36926 14.6293L4.23898 13.7596C3.49159 13.0157 2.92692 12.1086 2.58936 11.1096C2.2518 10.1106 2.15056 9.04694 2.29358 8.0022L1.07432 7.83482Z" fill="black"/>
<path d="M3.75243 3.75204L4.45953 3.04493L4.02467 2.61007L3.31756 3.31718L2.61046 4.02429L3.04532 4.45915L3.75243 3.75204ZM4.80513 4.18608L3.80514 4.18142L3.7994 5.41216L4.79938 5.41682L5.79937 5.42149L5.80512 4.19075L4.80513 4.18608ZM2.08764 2.70591L2.09297 3.7059L3.32372 3.69934L3.31838 2.69935L3.31305 1.69936L2.0823 1.70593L2.08764 2.70591ZM3.31756 3.31718L2.61046 4.02429L3.48019 4.89401L4.18729 4.1869L4.8944 3.47979L4.02467 2.61007L3.31756 3.31718ZM13.7609 4.23942L14.468 4.94652L15.3377 4.0768L14.6306 3.36969L13.9235 2.66258L13.0538 3.53231L13.7609 4.23942ZM14.6831 14.6826L15.3902 13.9755L14.5205 13.1058L13.8134 13.8129L13.1063 14.52L13.976 15.3898L14.6831 14.6826ZM3.31756 3.31718L4.73121 4.73196L4.73196 4.73121L3.31756 3.31718ZM2.71368 4.79161L4.71365 4.80227L4.72441 2.78355L2.70568 2.79162L2.71368 4.79161ZM2.7104 5.40698L2.69974 7.40695L2.70097 7.40695L2.7104 5.40698ZM4.79938 5.41682L4.78996 7.4168H4.79005L4.79938 5.41682ZM4.80513 4.18608L4.7957 6.18606L4.7958 6.18606L4.80513 4.18608ZM3.31838 2.69935L5.31836 2.68914L5.31836 2.68868L3.31838 2.69935ZM2.08764 2.70591L4.08761 2.6957L4.08761 2.69525L2.08764 2.70591ZM2.2944 8.00302L2.02239 9.98443L3.98578 10.254L4.27325 8.29313L2.2944 8.00302ZM1.07514 7.83564L-0.908678 7.58175L-1.16026 9.54752L0.803132 9.81705L1.07514 7.83564ZM4.18729 4.1869L2.77331 2.77246L2.77308 2.77269L4.18729 4.1869ZM13.7609 4.23942L15.1753 2.82541L15.1749 2.82498L13.7609 4.23942ZM3.37008 14.6301L1.95587 13.2159L0.541639 14.6301L1.95587 16.0444L3.37008 14.6301ZM14.6831 14.6826L13.2689 13.2684L13.2687 13.2686L14.6831 14.6826ZM13.8134 13.8129L15.2274 15.2274L15.2278 15.2269L13.8134 13.8129ZM4.2398 13.7604L5.6538 12.346L4.23959 10.9322L2.8256 12.3462L4.2398 13.7604ZM2.27799 4.35593L0.864342 2.94115L-0.551671 4.35603L0.864451 5.77081L2.27799 4.35593ZM3.14854 5.22565L1.735 6.64053L3.14921 8.0534L4.56275 6.63987L3.14854 5.22565ZM2.71696 4.17624L2.72639 2.17626L0.727647 2.16684L0.716987 4.16557L2.71696 4.17624ZM3.32905 4.78833L3.33838 6.7883L5.33924 6.77897L5.32902 4.77811L3.32905 4.78833ZM1.07432 7.83482L1.34633 5.8534L-0.635939 5.58127L-0.907213 7.56366L1.07432 7.83482ZM3.36926 14.6293L1.95796 16.0464L3.37216 17.4548L4.78346 16.0435L3.36926 14.6293ZM4.23898 13.7596L5.65319 15.1738L7.07076 13.7563L5.64986 12.3421L4.23898 13.7596ZM2.29358 8.0022L4.2751 8.27347L4.54627 6.29269L2.56559 6.02078L2.29358 8.0022ZM2.71368 4.79161L2.70568 2.79162L2.0903 2.79408L2.0983 4.79407L2.1063 6.79405L2.72168 6.79159L2.71368 4.79161ZM2.0983 4.79407L0.0983189 4.80204C0.101067 5.49146 0.375921 6.15191 0.86309 6.63973L2.27825 5.22646L3.6934 3.81319C3.95132 4.07145 4.09683 4.4211 4.09829 4.7861L2.0983 4.79407ZM2.27825 5.22646L0.86309 6.63973C1.35026 7.12755 2.01034 7.40328 2.69974 7.40695L2.7104 5.40698L2.72105 3.407C3.08603 3.40895 3.43548 3.55492 3.6934 3.81319L2.27825 5.22646ZM2.7104 5.40698L4.71037 5.41764L4.71365 4.80227L2.71368 4.79161L0.713705 4.78094L0.710424 5.39631L2.7104 5.40698ZM4.79938 5.41682L4.79005 7.4168C5.1335 7.4184 5.47391 7.35234 5.79183 7.22239L5.0351 5.37108L4.27837 3.51977C4.44668 3.45097 4.62689 3.416 4.80872 3.41684L4.79938 5.41682ZM5.0351 5.37108L5.79183 7.22239C6.10975 7.09244 6.39896 6.90114 6.64295 6.65942L5.23536 5.23862L3.82777 3.81781C3.95694 3.68984 4.11005 3.58857 4.27837 3.51977L5.0351 5.37108ZM5.23536 5.23862L6.64295 6.65942C6.88694 6.4177 7.08094 6.13029 7.21385 5.81358L5.36969 5.0396L3.52552 4.26561C3.59589 4.09794 3.6986 3.94578 3.82777 3.81781L5.23536 5.23862ZM5.36969 5.0396L7.21385 5.81358C7.34677 5.49689 7.41601 5.15711 7.41761 4.81366L5.41763 4.80432L3.41765 4.79499C3.4185 4.61316 3.45516 4.43328 3.52552 4.26561L5.36969 5.0396ZM5.41763 4.80432L7.41761 4.81366C7.41921 4.4702 7.35315 4.1298 7.2232 3.81187L5.37189 4.56861L3.52058 5.32535C3.45178 5.15704 3.4168 4.97682 3.41765 4.79499L5.41763 4.80432ZM5.37189 4.56861L7.2232 3.81187C7.09324 3.49395 6.90194 3.20474 6.66022 2.96075L5.23942 4.36835L3.81863 5.77596C3.69066 5.64678 3.58938 5.49367 3.52058 5.32535L5.37189 4.56861ZM5.23942 4.36835L6.66022 2.96075C6.41849 2.71676 6.13107 2.52277 5.81438 2.38986L5.0404 4.23402L4.26643 6.07819C4.09876 6.00783 3.9466 5.90513 3.81863 5.77596L5.23942 4.36835ZM5.0404 4.23402L5.81438 2.38986C5.49768 2.25694 5.15791 2.18771 4.81446 2.18611L4.80513 4.18608L4.7958 6.18606C4.61397 6.18521 4.43409 6.14856 4.26643 6.07819L5.0404 4.23402ZM3.31838 2.69935L5.31836 2.68868C5.31652 2.34523 5.24706 2.0055 5.11393 1.68889L3.27029 2.46411L1.42664 3.23932C1.35616 3.0717 1.31938 2.89184 1.31841 2.71002L3.31838 2.69935ZM3.27029 2.46411L5.11393 1.68889C4.98081 1.37229 4.78663 1.085 4.54247 0.843439L3.13583 2.26518L1.72918 3.68692C1.59992 3.55903 1.49712 3.40694 1.42664 3.23932L3.27029 2.46411ZM3.13583 2.26518L4.54247 0.843439C4.29832 0.601875 4.00897 0.410771 3.69097 0.281032L2.93547 2.13285L2.17997 3.98467C2.01162 3.91598 1.85844 3.81481 1.72918 3.68692L3.13583 2.26518ZM2.93547 2.13285L3.69097 0.281032C3.37296 0.151293 3.03251 0.0854591 2.68906 0.0872909L2.69973 2.08726L2.7104 4.08723C2.52857 4.0882 2.34833 4.05335 2.17997 3.98467L2.93547 2.13285ZM2.69973 2.08726L2.68906 0.0872909C2.34562 0.0891226 2.00589 0.158582 1.68928 0.291708L2.46448 2.13536L3.23969 3.97901C3.07207 4.04949 2.89222 4.08626 2.7104 4.08723L2.69973 2.08726ZM2.46448 2.13536L1.68928 0.291708C1.37267 0.424833 1.08539 0.619014 0.843824 0.863165L2.26555 2.26982L3.68729 3.67648C3.5594 3.80573 3.40731 3.90854 3.23969 3.97901L2.46448 2.13536ZM2.26555 2.26982L0.843824 0.863165C0.602261 1.10732 0.411153 1.39666 0.28141 1.71467L2.13322 2.47017L3.98504 3.22568C3.91635 3.39404 3.81517 3.54722 3.68729 3.67648L2.26555 2.26982ZM2.13322 2.47017L0.28141 1.71467C0.151668 2.03268 0.0858331 2.37313 0.0876649 2.71658L2.08764 2.70591L4.08761 2.69525C4.08858 2.87708 4.05372 3.05732 3.98504 3.22568L2.13322 2.47017ZM2.2944 8.00302L4.27325 8.29313C4.32336 7.95132 4.30526 7.60296 4.21998 7.26818L2.28187 7.76186L0.343756 8.25553C0.298609 8.07829 0.289025 7.89387 0.315555 7.7129L2.2944 8.00302ZM2.28187 7.76186L4.21998 7.26818C4.13471 6.9334 3.98395 6.61884 3.77642 6.34265L2.1775 7.54409L0.578586 8.74553C0.468715 8.59931 0.388902 8.43277 0.343756 8.25553L2.28187 7.76186ZM2.1775 7.54409L3.77642 6.34265C3.56889 6.06646 3.3087 5.83413 3.01088 5.65906L1.99738 7.38325L0.98388 9.10744C0.826204 9.01475 0.688455 8.89175 0.578586 8.74553L2.1775 7.54409ZM1.99738 7.38325L3.01088 5.65906C2.71305 5.484 2.3835 5.36967 2.04124 5.32269L1.76923 7.3041L1.49722 9.28552C1.31602 9.26064 1.14155 9.20012 0.98388 9.10744L1.99738 7.38325ZM1.76923 7.3041L2.04124 5.32269C1.69899 5.2757 1.35082 5.29699 1.01683 5.38532L1.52819 7.31884L2.03956 9.25236C1.86274 9.29912 1.67841 9.31039 1.49722 9.28552L1.76923 7.3041ZM1.52819 7.31884L1.01683 5.38532C0.682838 5.47365 0.369665 5.62727 0.0953923 5.83731L1.31139 7.42519L2.52739 9.01307C2.38218 9.12426 2.21639 9.20559 2.03956 9.25236L1.52819 7.31884ZM1.31139 7.42519L0.0953923 5.83731C-0.17889 6.04736 -0.408838 6.30966 -0.581174 6.60907L1.1522 7.60678L2.88557 8.60448C2.79433 8.763 2.6726 8.90186 2.52739 9.01307L1.31139 7.42519ZM1.1522 7.60678L-0.581174 6.60907C-0.753513 6.90848 -0.864823 7.23907 -0.908678 7.58175L1.07514 7.83564L3.05896 8.08953C3.03574 8.27094 2.97681 8.44597 2.88557 8.60448L1.1522 7.60678ZM1.07514 7.83564L0.803132 9.81705L2.02239 9.98443L2.2944 8.00302L2.56641 6.0216L1.34715 5.85422L1.07514 7.83564ZM14.6306 3.36969L16.0448 1.95547C12.1435 -1.94582 5.81201 -2.00669 1.90317 1.90315L3.31756 3.31718L4.73196 4.73121C7.0507 2.41187 10.8491 2.41664 13.2164 4.78391L14.6306 3.36969ZM4.18729 4.1869L5.60128 5.60134C7.43281 3.7704 10.4522 3.75979 12.3469 5.65385L13.7609 4.23942L15.1749 2.82498C11.7445 -0.604322 6.19297 -0.646105 2.77331 2.77246L4.18729 4.1869ZM3.37008 14.6301L1.95587 16.0444C5.85719 19.9456 12.1887 20.0065 16.0975 16.0967L14.6831 14.6826L13.2687 13.2686C10.95 15.588 7.15158 15.5832 4.78428 13.2159L3.37008 14.6301ZM13.8134 13.8129L12.3994 12.3985C10.5679 14.2294 7.54845 14.24 5.6538 12.346L4.2398 13.7604L2.82581 15.1749C6.2562 18.6042 11.8077 18.6459 15.2274 15.2274L13.8134 13.8129ZM4.2398 13.7604L2.8256 12.3462L1.95587 13.2159L3.37008 14.6301L4.78428 16.0444L5.65401 15.1746L4.2398 13.7604ZM14.6831 14.6826L16.0973 16.0969C20.0059 12.1883 19.9464 5.85701 16.0448 1.95547L14.6306 3.36969L13.2164 4.78391C15.5834 7.15094 15.5879 10.9494 13.2689 13.2684L14.6831 14.6826ZM13.7609 4.23942L12.3464 5.65342C14.2405 7.54805 14.2299 10.5674 12.399 12.3989L13.8134 13.8129L15.2278 15.2269C18.6464 11.8073 18.6046 6.25578 15.1753 2.82541L13.7609 4.23942ZM3.31756 3.31718L1.90391 1.9024L0.864342 2.94115L2.27799 4.35593L3.69164 5.7707L4.73121 4.73196L3.31756 3.31718ZM2.27799 4.35593L0.864451 5.77081L1.735 6.64053L3.14854 5.22565L4.56208 3.81076L3.69153 2.94104L2.27799 4.35593ZM3.14854 5.22565L4.56275 6.63987L5.6015 5.60112L4.18729 4.1869L2.77308 2.77269L1.73433 3.81143L3.14854 5.22565ZM2.7104 5.40698L2.70097 7.40695L4.78996 7.4168L4.79938 5.41682L4.80881 3.41684L2.71982 3.407L2.7104 5.40698ZM4.80513 4.18608L4.81456 2.18611L2.72639 2.17626L2.71696 4.17624L2.70753 6.17622L4.7957 6.18606L4.80513 4.18608ZM2.71696 4.17624L0.716987 4.16557L0.710424 5.39631L2.7104 5.40698L4.71037 5.41764L4.71693 4.1869L2.71696 4.17624ZM3.32905 4.78833L5.32902 4.77811L5.31836 2.68914L3.31838 2.69935L1.31841 2.70956L1.32908 4.79854L3.32905 4.78833ZM2.08764 2.70591L0.0876626 2.71613L0.0983291 4.80428L2.0983 4.79407L4.09828 4.78385L4.08761 2.6957L2.08764 2.70591ZM2.0983 4.79407L2.10764 6.79405L3.33838 6.7883L3.32905 4.78833L3.31972 2.78835L2.08897 2.79409L2.0983 4.79407ZM1.07432 7.83482L-0.907213 7.56366C-1.11784 9.10286 -0.968728 10.6699 -0.471589 12.1418L1.42324 11.5018L3.31808 10.8618C3.01882 9.97579 2.92907 9.03249 3.05585 8.10597L1.07432 7.83482ZM1.42324 11.5018L-0.471589 12.1418C0.0255497 13.6136 0.857175 14.9502 1.95796 16.0464L3.36926 14.6293L4.78055 13.2122C4.11793 12.5523 3.61733 11.7478 3.31808 10.8618L1.42324 11.5018ZM3.36926 14.6293L4.78346 16.0435L5.65319 15.1738L4.23898 13.7596L2.82478 12.3454L1.95505 13.2151L3.36926 14.6293ZM4.23898 13.7596L5.64986 12.3421C5.1217 11.8164 4.72266 11.1754 4.48412 10.4694L2.58936 11.1096L0.694602 11.7499C1.13118 13.0419 1.86148 14.2151 2.82811 15.1771L4.23898 13.7596ZM2.58936 11.1096L4.48412 10.4694C4.24557 9.76343 4.17403 9.01176 4.2751 8.27347L2.29358 8.0022L0.312064 7.73093C0.127084 9.08212 0.258028 10.4578 0.694602 11.7499L2.58936 11.1096ZM2.29358 8.0022L2.56559 6.02078L1.34633 5.8534L1.07432 7.83482L0.80231 9.81623L2.02157 9.98361L2.29358 8.0022Z" fill="#272829" mask="url(#path-2-inside-1_222_867)"/>
</svg>
