<svg width="18" height="18" viewBox="0 0 18 18" fill="none" xmlns="http://www.w3.org/2000/svg">
<g clip-path="url(#clip0_225_3128)">
<path d="M9 1C13.4184 1 17 4.69424 17 9.25159C17 13.8089 13.4184 17.5032 9 17.5032C4.5816 17.5032 1 13.8089 1 9.25159C1 4.69424 4.5816 1 9 1ZM9 2.65032C7.30261 2.65032 5.67475 3.34581 4.47452 4.58379C3.27428 5.82177 2.6 7.50083 2.6 9.25159C2.6 11.0024 3.27428 12.6814 4.47452 13.9194C5.67475 15.1574 7.30261 15.8529 9 15.8529C10.6974 15.8529 12.3253 15.1574 13.5255 13.9194C14.7257 12.6814 15.4 11.0024 15.4 9.25159C15.4 7.50083 14.7257 5.82177 13.5255 4.58379C12.3253 3.34581 10.6974 2.65032 9 2.65032ZM9 4.30064C9.19595 4.30066 9.38507 4.37487 9.5315 4.50917C9.67793 4.64347 9.77147 4.82853 9.7944 5.02925L9.8 5.1258V8.90998L11.9656 11.1437C12.1091 11.2922 12.1924 11.4914 12.1986 11.701C12.2048 11.9105 12.1334 12.1147 11.999 12.2719C11.8646 12.4292 11.6772 12.5277 11.4748 12.5476C11.2725 12.5675 11.0704 12.5072 10.9096 12.3789L10.8344 12.3105L8.4344 9.83498C8.31006 9.70663 8.23021 9.53958 8.2072 9.35969L8.2 9.25159V5.1258C8.2 4.90695 8.28429 4.69707 8.43431 4.54232C8.58434 4.38757 8.78783 4.30064 9 4.30064Z" fill="#454547"/>
</g>
<defs>
<clipPath id="clip0_225_3128">
<rect width="18" height="18" fill="white"/>
</clipPath>
</defs>
</svg>
