<svg width="18" height="18" viewBox="0 0 18 18" fill="none" xmlns="http://www.w3.org/2000/svg">
<g clip-path="url(#clip0_88_1123)">
<path d="M10.0501 1.49999H4.50012C4.1023 1.49999 3.72077 1.65802 3.43946 1.93933C3.15816 2.22063 3.00012 2.60216 3.00012 2.99999V15C3.00012 15.3978 3.15816 15.7793 3.43946 16.0606C3.72077 16.342 4.1023 16.5 4.50012 16.5H13.5001C13.8979 16.5 14.2795 16.342 14.5608 16.0606C14.8421 15.7793 15.0001 15.3978 15.0001 15V9.44999M1.50012 4.49999H4.50012M1.50012 7.49999H4.50012M1.50012 10.5H4.50012M1.50012 13.5H4.50012M16.0336 4.21949C16.3324 3.92072 16.5002 3.51551 16.5002 3.09299C16.5002 2.67047 16.3324 2.26526 16.0336 1.96649C15.7349 1.66772 15.3296 1.49988 14.9071 1.49988C14.4846 1.49988 14.0794 1.66772 13.7806 1.96649L10.0231 5.72549C9.84481 5.90371 9.71429 6.12399 9.64362 6.36599L9.01587 8.51849C8.99705 8.58303 8.99592 8.65143 9.0126 8.71656C9.02929 8.78168 9.06317 8.84112 9.11071 8.88865C9.15824 8.93619 9.21768 8.97007 9.2828 8.98676C9.34793 9.00344 9.41634 9.00231 9.48087 8.98349L11.6334 8.35574C11.8754 8.28507 12.0957 8.15455 12.2739 7.97624L16.0336 4.21949Z" stroke="#272829" stroke-width="1.35" stroke-linecap="round" stroke-linejoin="round"/>
</g>
<defs>
<clipPath id="clip0_88_1123">
<rect width="18" height="18" fill="white"/>
</clipPath>
</defs>
</svg>
