<svg width="18" height="18" viewBox="0 0 18 18" fill="none" xmlns="http://www.w3.org/2000/svg">
<path d="M16.5003 8.99997C16.5003 9.071 16.4801 9.14058 16.4421 9.20059C16.4041 9.26061 16.3499 9.3086 16.2856 9.33897L2.78564 15.714C2.71821 15.7467 2.64251 15.7583 2.56837 15.7474C2.49424 15.7365 2.42509 15.7035 2.36993 15.6528C2.31477 15.6021 2.27613 15.536 2.25905 15.463C2.24197 15.3901 2.24722 15.3136 2.27414 15.2437L4.40564 9.52347C4.5314 9.18579 4.5314 8.81414 4.40564 8.47647L2.27339 2.75622C2.24634 2.6862 2.24101 2.60965 2.2581 2.53656C2.27519 2.46347 2.31391 2.39723 2.36921 2.34647C2.4245 2.2957 2.49381 2.26278 2.56809 2.25199C2.64238 2.2412 2.71819 2.25304 2.78564 2.28597L16.2856 8.66097C16.3499 8.69134 16.4041 8.73932 16.4421 8.79934C16.4801 8.85935 16.5003 8.92893 16.5003 8.99997ZM16.5003 8.99997H4.50014" stroke="#272829" stroke-width="1.5" stroke-linecap="round" stroke-linejoin="round"/>
</svg>
