<svg width="18" height="18" viewBox="0 0 18 18" fill="none" xmlns="http://www.w3.org/2000/svg">
<path d="M6.375 13.4444V14.3333C6.375 15.0406 6.65156 15.7189 7.14384 16.219C7.63613 16.719 8.30381 17 9 17C9.69619 17 10.3639 16.719 10.8562 16.219C11.3484 15.7189 11.625 15.0406 11.625 14.3333V13.4444M7.25 2.77778C7.25 2.30628 7.43437 1.8541 7.76256 1.5207C8.09075 1.1873 8.53587 1 9 1C9.46413 1 9.90925 1.1873 10.2374 1.5207C10.5656 1.8541 10.75 2.30628 10.75 2.77778C11.7549 3.26047 12.6115 4.01185 13.228 4.95138C13.8446 5.89091 14.1979 6.98318 14.25 8.11111V10.7778C14.3158 11.3304 14.5085 11.8596 14.8125 12.3228C15.1164 12.7859 15.5232 13.1701 16 13.4444H2C2.47682 13.1701 2.88358 12.7859 3.18754 12.3228C3.49149 11.8596 3.68415 11.3304 3.75 10.7778V8.11111C3.80212 6.98318 4.15539 5.89091 4.77196 4.95138C5.38852 4.01185 6.24514 3.26047 7.25 2.77778Z" stroke="#272829" stroke-width="1.5" stroke-linecap="round" stroke-linejoin="round"/>
</svg>
