<svg width="18" height="18" viewBox="0 0 18 18" fill="none" xmlns="http://www.w3.org/2000/svg">
<path d="M6.33093 12.1054L3.41164 9.32204C3.3353 9.24837 3.24438 9.18988 3.14416 9.14996C3.04394 9.11004 2.9364 9.08949 2.82778 9.08949C2.71916 9.08949 2.61162 9.11004 2.5114 9.14996C2.41117 9.18988 2.32026 9.24837 2.24392 9.32204C2.16665 9.39483 2.1053 9.48151 2.06343 9.57706C2.02156 9.67262 2 9.77515 2 9.87871C2 9.98227 2.02156 10.0848 2.06343 10.1804C2.1053 10.2759 2.16665 10.3626 2.24392 10.4354L5.73873 13.7674C6.06402 14.0775 6.5895 14.0775 6.91479 13.7674L15.7561 5.34588C15.8333 5.2731 15.8947 5.18642 15.9366 5.09086C15.9784 4.99531 16 4.89278 16 4.78922C16 4.68566 15.9784 4.58313 15.9366 4.48758C15.8947 4.39202 15.8333 4.30534 15.7561 4.23256C15.6797 4.15889 15.5888 4.1004 15.4886 4.06048C15.3884 4.02056 15.2808 4 15.1722 4C15.0636 4 14.9561 4.02056 14.8558 4.06048C14.7556 4.1004 14.6647 4.15889 14.5884 4.23256L6.33093 12.1054Z" fill="#272829"/>
</svg>
