<svg width="18" height="18" viewBox="0 0 18 18" fill="none" xmlns="http://www.w3.org/2000/svg">
<path d="M3 14.5C3 15.3284 3.67157 16 4.5 16C5.32843 16 6 15.3284 6 14.5V12C6 10.8954 6.89543 10 8 10H10C11.1046 10 12 10.8954 12 12V14.5C12 15.3284 12.6716 16 13.5 16C14.3284 16 15 15.3284 15 14.5V8C15 7.37049 14.7036 6.77771 14.2 6.4L10.2 3.4C9.48889 2.86667 8.51111 2.86667 7.8 3.4L3.8 6.4C3.29639 6.77771 3 7.37049 3 8V14.5ZM3 18C1.89543 18 1 17.1046 1 16V7C1 6.37049 1.29639 5.77771 1.8 5.4L7.8 0.9C8.51111 0.366667 9.48889 0.366667 10.2 0.9L16.2 5.4C16.7036 5.77771 17 6.37049 17 7V16C17 17.1046 16.1046 18 15 18H12C10.8954 18 10 17.1046 10 16V13C10 12.4477 9.55229 12 9 12C8.44772 12 8 12.4477 8 13V16C8 17.1046 7.10457 18 6 18H3Z" fill="#272829"/>
</svg>
