<svg width="18" height="18" viewBox="0 0 18 18" fill="none" xmlns="http://www.w3.org/2000/svg">
<path d="M11.4 2.97462C11.4 2.1346 10.3808 1.69048 9.736 2.24738L6.1416 5.35468C6.03189 5.4497 5.89013 5.50229 5.7432 5.50246H2.8C2.32289 5.50246 1.86529 5.68662 1.52777 6.01448C1.19025 6.34234 1.00042 6.78707 1 7.25094V10.7487C1 11.2128 1.18964 11.658 1.52721 11.9862C1.86477 12.3144 2.32261 12.4987 2.8 12.4987H5.744C5.89093 12.4989 6.03269 12.5515 6.1424 12.6465L9.73519 15.7523C10.38 16.3099 11.4 15.865 11.4 15.0258V2.97462ZM6.94 6.22581L10.2 3.40707V14.5933L6.94 11.7754C6.61055 11.4904 6.18496 11.3329 5.744 11.3328H2.8C2.64087 11.3328 2.48826 11.2714 2.37574 11.162C2.26321 11.0526 2.2 10.9042 2.2 10.7495V7.25094C2.2 7.09623 2.26321 6.94785 2.37574 6.83845C2.48826 6.72905 2.64087 6.6676 2.8 6.6676H5.744C6.18486 6.6677 6.61043 6.5105 6.94 6.22581ZM14.5936 4.25565C14.7214 4.16356 14.8817 4.12461 15.039 4.14737C15.1964 4.17012 15.338 4.25271 15.4328 4.37699C16.453 5.71495 17.0026 7.33698 17 9.00254C17.0024 10.6682 16.4525 12.2902 15.432 13.6281C15.3856 13.6909 15.3268 13.7442 15.2591 13.7847C15.1913 13.8253 15.1159 13.8523 15.0373 13.8643C14.9587 13.8763 14.8784 13.8729 14.8012 13.8544C14.7239 13.8359 14.6512 13.8027 14.5873 13.7566C14.5234 13.7106 14.4695 13.6526 14.4288 13.5861C14.3882 13.5197 14.3615 13.446 14.3504 13.3694C14.3393 13.2928 14.344 13.2148 14.3642 13.14C14.3844 13.0651 14.4196 12.995 14.468 12.9335C15.3353 11.7966 15.8024 10.4181 15.8 9.00254C15.8023 7.58729 15.3352 6.20905 14.468 5.07234C14.421 5.01072 14.387 4.9407 14.3679 4.86629C14.3488 4.79187 14.3449 4.71452 14.3566 4.63867C14.3683 4.56281 14.3952 4.48994 14.4359 4.42421C14.4765 4.35849 14.5301 4.30121 14.5936 4.25565ZM13.1144 6.17836C13.1837 6.14183 13.2597 6.11893 13.3381 6.11096C13.4165 6.10299 13.4957 6.11012 13.5712 6.13193C13.6468 6.15375 13.7172 6.18982 13.7784 6.23809C13.8396 6.28636 13.8904 6.34588 13.928 6.41326C14.3568 7.18405 14.6 8.06607 14.6 9.00254C14.6004 9.90622 14.3695 10.7958 13.928 11.591C13.8905 11.6585 13.8397 11.718 13.7785 11.7664C13.7173 11.8147 13.6469 11.8508 13.5714 11.8727C13.4958 11.8946 13.4166 11.9018 13.3382 11.8939C13.2598 11.886 13.1837 11.8632 13.1144 11.8267C13.0451 11.7903 12.9838 11.7409 12.9341 11.6814C12.8844 11.6219 12.8472 11.5535 12.8247 11.48C12.8022 11.4066 12.7948 11.3295 12.8029 11.2533C12.811 11.177 12.8345 11.1031 12.872 11.0357C13.208 10.4314 13.4 9.73911 13.4 9.00176C13.4002 8.29195 13.2188 7.59324 12.872 6.9686C12.7964 6.83254 12.7795 6.67288 12.825 6.5247C12.8704 6.37652 12.9745 6.25195 13.1144 6.17836Z" fill="#272829"/>
</svg>
