<svg width="18" height="18" viewBox="0 0 18 18" fill="none" xmlns="http://www.w3.org/2000/svg">
<path d="M9 2.24999H3.75C3.35218 2.24999 2.97064 2.40802 2.68934 2.68933C2.40804 2.97063 2.25 3.35216 2.25 3.74999V14.25C2.25 14.6478 2.40804 15.0293 2.68934 15.3106C2.97064 15.592 3.35218 15.75 3.75 15.75H14.25C14.6478 15.75 15.0294 15.592 15.3107 15.3106C15.592 15.0293 15.75 14.6478 15.75 14.25V8.99999M13.7812 1.96874C14.0796 1.67037 14.4843 1.50275 14.9062 1.50275C15.3282 1.50275 15.7329 1.67037 16.0312 1.96874C16.3296 2.26711 16.4972 2.67178 16.4972 3.09374C16.4972 3.51569 16.3296 3.92037 16.0312 4.21874L9.2715 10.9792C9.09341 11.1572 8.8734 11.2874 8.63175 11.358L6.477 11.988C6.41246 12.0068 6.34405 12.0079 6.27893 11.9913C6.21381 11.9746 6.15437 11.9407 6.10683 11.8932C6.0593 11.8456 6.02542 11.7862 6.00873 11.7211C5.99205 11.6559 5.99318 11.5875 6.012 11.523L6.642 9.36824C6.71289 9.12677 6.8434 8.90703 7.0215 8.72924L13.7812 1.96874Z" stroke="#272829" stroke-width="1.35" stroke-linecap="round" stroke-linejoin="round"/>
</svg>
